<svg width="248" height="249" viewBox="0 0 248 249" fill="none" xmlns="http://www.w3.org/2000/svg">
<path d="M214.121 10.3149C233.855 23.0657 243.634 50.4886 246.777 76.5141C250.095 102.54 246.603 126.819 236.998 146.905C227.393 166.992 211.502 182.712 193.689 200.529C175.877 218.519 155.969 238.257 130.647 245.768C105.325 253.104 74.7646 248.038 58.6984 229.698C42.6322 211.183 41.0605 179.394 29.8841 149.7C18.7076 120.007 -2.24826 92.2343 0.196588 68.3047C2.64144 44.3752 28.487 23.939 55.0311 13.4589C81.5752 2.97886 108.818 2.45486 137.108 1.05751C165.399 -0.339831 194.562 -2.43585 214.121 10.3149Z" fill="#F7B8BB"/>
</svg>
