<svg width="80" height="99" viewBox="0 0 80 99" fill="none" xmlns="http://www.w3.org/2000/svg">
<g clip-path="url(#clip0)">
<path d="M21.096 98.0702C20.9266 98.0702 20.7441 98.0274 20.6173 97.8558L15.1851 90.7124V97.9989H13.9465V89.0264C13.9465 88.6692 14.2421 88.3836 14.5802 88.3836C14.7771 88.3836 14.9458 88.4405 15.0723 88.612L20.4904 95.7411V88.4836H21.7287V97.4412C21.7287 97.8127 21.4331 98.0699 21.0957 98.0699L21.096 98.0702ZM31.3412 98.1558C30.1033 98.1558 28.8081 97.8983 27.598 97.4415L27.8936 96.4126C29.0053 96.77 30.2155 97.0272 31.3412 97.0272C32.9036 97.0272 33.7197 96.4698 33.7197 95.6842C33.7197 94.97 33.086 94.6125 30.9051 93.5839C28.7238 92.5553 27.8657 91.8985 27.8657 90.6124C27.8657 88.9982 29.1037 88.3408 31.4397 88.3408C32.4108 88.3408 33.9025 88.5408 34.7611 88.7983L34.5643 89.8553C33.6207 89.6269 32.4392 89.4697 31.4678 89.4697C29.8217 89.4697 29.1462 89.7838 29.1462 90.5696C29.1462 91.3411 29.6383 91.6694 31.9465 92.7412C34.3812 93.8698 35.0002 94.4413 35.0002 95.6127C35.0002 97.3131 33.3957 98.1558 31.3412 98.1558V98.1558ZM40.8688 88.4839H42.1493V97.9983H40.8688V88.4839ZM53.0423 93.6842H49.8614V96.9132H53.0423C54.1256 96.9132 54.7871 96.2273 54.7871 95.2696C54.7871 94.3697 54.0978 93.6842 53.0423 93.6842ZM52.4227 89.5694H49.8614V92.6128H52.4227C53.45 92.6128 54.1959 91.9554 54.1959 91.0411C54.1959 90.1412 53.5485 89.5694 52.4227 89.5694V89.5694ZM53.0563 97.9986H49.2287C49.1437 97.9999 49.0594 97.9841 48.9806 97.9523C48.9018 97.9205 48.8301 97.8732 48.7698 97.8134C48.7094 97.7535 48.6617 97.6822 48.6293 97.6037C48.5968 97.5251 48.5804 97.4409 48.581 97.3559V89.1263C48.581 88.7833 48.8625 88.4836 49.2287 88.4836H52.3949C54.3368 88.4836 55.4907 89.4407 55.4907 90.9408C55.4907 91.7551 55.012 92.5125 54.2803 92.9552C55.3645 93.2839 56.0956 94.1838 56.0956 95.2696C56.0956 96.7838 54.8433 97.9983 53.0563 97.9983V97.9986ZM62.2455 97.9986C61.8943 97.9986 61.6128 97.6987 61.6128 97.3559V88.4839H62.8929V96.8416H67.9873V97.9986H62.2455V97.9986ZM76.7168 98.1558C74.0993 98.1558 72.5233 97.1844 72.5233 95.2271C72.5233 94.2985 73.0442 93.4127 74.0575 92.9983C73.241 92.484 72.8189 91.7554 72.8189 90.9555C72.8189 89.1838 74.1843 88.3408 76.7453 88.3408C77.6039 88.3408 78.8137 88.4408 79.8274 88.6695L79.6864 89.7266C78.6172 89.555 77.6176 89.4554 76.6465 89.4554C74.9861 89.4554 74.0993 89.9125 74.0993 91.0127C74.0993 91.8844 74.9158 92.57 75.9994 92.57H78.1945C78.5041 92.57 78.7434 92.8127 78.7434 93.1127C78.7434 93.427 78.5041 93.6698 78.1945 93.6698H75.8307C74.5921 93.6698 73.8044 94.2838 73.8044 95.2271C73.8044 96.6129 75.0848 97.0269 76.689 97.0269C77.5617 97.0269 78.7434 96.9131 79.7002 96.6844L79.8836 97.7271C78.9687 97.9846 77.7723 98.1558 76.7168 98.1558V98.1558ZM4.41711 90.2684L6.65996 95.8877L3.27288 93.1786L4.41711 90.2684V90.2684ZM8.4013 97.1822L4.95173 88.7539C4.85362 88.5108 4.65646 88.3821 4.41711 88.3821C4.29847 88.3798 4.18204 88.4144 4.0838 88.481C3.98556 88.5475 3.91033 88.6429 3.86843 88.7539L0.0820312 97.9986H1.37687L2.87606 94.1873L7.34862 97.8555C7.5286 98.0033 7.65827 98.0699 7.82731 98.0699C8.16477 98.0699 8.46067 97.813 8.46067 97.4418C8.46067 97.3812 8.43942 97.2856 8.4013 97.1825V97.1822Z" fill="#5E5F85"/>
<path d="M79.9515 39.9539C79.9515 61.9683 62.1069 79.813 40.0918 79.813C18.0789 79.813 0.232422 61.9683 0.232422 39.9539C0.232422 17.941 18.0789 0.0944824 40.0918 0.0944824C62.1066 0.0944824 79.9515 17.941 79.9515 39.9539" fill="#101120"/>
<path d="M40.7633 24.4434L51.0779 49.9015L35.4977 37.6287L40.7633 24.4437V24.4434ZM59.0873 55.7661L43.2211 17.5827C42.768 16.4816 41.8625 15.8986 40.7633 15.8986C39.6619 15.8986 38.6904 16.4816 38.2373 17.5827L20.8232 59.465H26.7803L33.6738 42.1968L54.2463 58.8166C55.0734 59.4856 55.6705 59.7884 56.4463 59.7884C58.0005 59.7884 59.3591 58.6229 59.3591 56.9415C59.3591 56.6678 59.2623 56.2332 59.0873 55.7661V55.7661Z" fill="#5E5F85"/>
</g>
<defs>
<clipPath id="clip0">
<rect width="80" height="98.4252" fill="white"/>
</clipPath>
</defs>
</svg>
