<svg width="80" height="126" viewBox="0 0 80 126" fill="none" xmlns="http://www.w3.org/2000/svg">
<g clip-path="url(#clip0)">
<path d="M23.5277 71.0292C23.1609 70.5504 22.6194 70.2363 22.0216 70.1558C21.4238 70.0753 20.8185 70.2348 20.3381 70.5995C20.0554 70.8224 19.8275 71.107 19.6715 71.4314L0.0876326 110.61C-0.189742 111.165 -0.235302 111.808 -0.0390323 112.397C0.157237 112.986 0.579272 113.472 1.13431 113.75C1.45874 113.914 1.81742 113.999 2.18099 113.998H29.4662C29.9032 114.009 30.334 113.893 30.7058 113.663C31.0776 113.433 31.3743 113.099 31.5596 112.704C37.4485 100.54 33.8788 82.0469 23.5277 71.0292Z" fill="#5E5F85"/>
<path d="M37.922 35.376C33.0399 42.8887 30.1947 51.5415 29.6655 60.4854C29.1362 69.4294 30.9411 78.3573 34.9031 86.3933L48.0582 112.703C48.2525 113.092 48.5513 113.419 48.921 113.648C49.2907 113.877 49.7168 113.998 50.1515 113.998H77.4312C77.7389 113.999 78.0436 113.939 78.328 113.821C78.6124 113.704 78.8708 113.531 79.0883 113.314C79.3059 113.096 79.4783 112.838 79.5957 112.554C79.7131 112.269 79.7732 111.964 79.7725 111.657C79.7727 111.294 79.6898 110.936 79.5301 110.61L41.9048 35.365C41.7262 34.988 41.4443 34.6694 41.0918 34.4463C40.7392 34.2232 40.3306 34.1047 39.9134 34.1047C39.4962 34.1047 39.0876 34.2232 38.735 34.4463C38.3825 34.6694 38.1005 34.988 37.922 35.365V35.376Z" fill="#5E5F85"/>
</g>
<defs>
<clipPath id="clip0">
<rect width="80" height="125.786" fill="white"/>
</clipPath>
</defs>
</svg>
