<svg width="80" height="73" viewBox="0 0 80 73" fill="none" xmlns="http://www.w3.org/2000/svg">
<path d="M2.87662 0.479339C2.50531 0.474537 2.13745 0.551083 1.79888 0.703601C1.4603 0.856119 1.15923 1.08091 0.916789 1.36219C0.674351 1.64346 0.496432 1.97441 0.395526 2.33177C0.294621 2.68914 0.273176 3.06427 0.332697 3.4308L11.1321 68.9899C11.2666 69.7922 11.6795 70.5214 12.2983 71.0495C12.9171 71.5776 13.7022 71.8707 14.5156 71.8775H66.3245C66.9342 71.8852 67.5264 71.6737 67.9933 71.2815C68.4601 70.8893 68.7706 70.3424 68.8681 69.7405L79.6678 3.44352C79.7272 3.077 79.7057 2.70192 79.6047 2.34461C79.5037 1.98729 79.3258 1.65642 79.0833 1.37521C78.8409 1.09399 78.5398 0.869268 78.2012 0.716806C77.8627 0.564345 77.4948 0.487844 77.1236 0.492675L2.87662 0.479339ZM48.3508 47.8616H31.8147L27.3373 24.4695H52.3577L48.3508 47.8616Z" fill="#5E5F85"/>
<path d="M76.1677 24.4365H52.3116L48.3077 47.8101H31.785L12.2754 70.9675C12.8938 71.5022 13.6821 71.7994 14.4995 71.8062H66.2798C66.8891 71.814 67.481 71.6028 67.9475 71.2109C68.4141 70.819 68.7244 70.2725 68.8219 69.6711L76.1677 24.4365Z" fill="#5E5F85"/>
</svg>
