<svg width="80" height="113" viewBox="0 0 80 113" fill="none" xmlns="http://www.w3.org/2000/svg">
<g clip-path="url(#clip0)">
<path d="M62.6905 4.17842H56.0547L62.957 11.6725V15.2366H48.7368V11.0627H55.6391L48.7368 3.5686V0H62.6951L62.6905 4.17842ZM45.9135 4.17842H39.2687L46.1801 11.6725V15.2366H31.9553V11.0627H38.8576L31.9553 3.5686V0H45.9135V4.17842ZM29.2992 4.35008H22.1394V10.891H29.2992V15.2411H17.0439V0H29.2992V4.35008Z" fill="#5E5F85"/>
<path d="M7.28176 103.855L0 22.1976H80L72.7092 103.842L39.9503 112.922L7.28176 103.855Z" fill="#5E5F85"/>
<path d="M40 105.983L66.4709 98.6426L72.6957 28.8741H40V105.983Z" fill="#5E5F85"/>
<path d="M40 58.4573H53.2535L54.166 48.2032H40V38.1931H65.1158L64.8763 40.8809L62.4145 68.481H40V58.4573Z" fill="#101120"/>
<path d="M40.0549 84.4676H40.0097L28.8567 81.4546L28.143 73.4681H18.0967L19.5015 89.1926L40.0187 94.9023H40.0775V84.4676H40.0549Z" fill="#101120"/>
<path d="M52.4045 68.0429L51.1984 81.4454L40.0273 84.4584V94.8932L60.5581 89.2015L60.7072 87.5076L62.4508 68.0383H52.4045V68.0429Z" fill="#101120"/>
<path d="M40.0359 38.1931V48.2078H15.8507L15.6429 45.9582L15.1867 40.8809L14.9473 38.1931H40.0359ZM39.9997 58.4573V68.4719H28.9732L28.779 66.2224L28.3227 61.145L28.0833 58.4573H39.9952H39.9997Z" fill="#101120"/>
</g>
<defs>
<clipPath id="clip0">
<rect width="80" height="112.922" fill="white"/>
</clipPath>
</defs>
</svg>
