<svg width="82" height="59" viewBox="0 0 82 59" fill="none" xmlns="http://www.w3.org/2000/svg">
<path d="M81.2013 22.7998C80.9732 22.6117 78.9195 21.0688 74.5079 21.0688C73.3669 21.0688 72.188 21.1817 71.047 21.3699C70.2104 15.6125 65.3804 12.8279 65.1903 12.6773L64.0113 12L63.2507 13.0913C62.2999 14.5588 61.5773 16.2146 61.159 17.9079C60.3603 21.1817 60.8547 24.2674 62.5281 26.9015C60.5124 28.0304 57.2418 28.2938 56.5572 28.3315H2.55305C1.1459 28.3315 0.00496371 29.4604 0.00496371 30.8527C-0.0710985 35.5188 0.727555 40.1849 2.36289 44.5877C4.22642 49.4043 7.00269 52.9792 10.5776 55.1617C14.6089 57.6077 21.1883 59 28.6043 59C31.9511 59 35.2978 58.699 38.6065 58.0969C43.2083 57.269 47.6199 55.6886 51.6892 53.3931C55.036 51.474 58.0404 49.028 60.5885 46.1681C64.886 41.3891 67.4341 36.0456 69.2976 31.3042H70.0582C74.7361 31.3042 77.6264 29.4604 79.2237 27.8799C80.2886 26.9015 81.0873 25.6974 81.6577 24.3427L82 23.3643L81.2013 22.7998Z" fill="#5E5F85"/>
<path d="M7.65027 26H14.918C15.2623 26 15.5683 25.7366 15.5683 25.3603V18.9638C15.5683 18.6252 15.3005 18.3242 14.918 18.3242H7.65027C7.30601 18.3242 7 18.5876 7 18.9638V25.3603C7.03825 25.7366 7.30601 26 7.65027 26ZM17.6721 26H24.9399C25.2842 26 25.5902 25.7366 25.5902 25.3603V18.9638C25.5902 18.6252 25.3224 18.3242 24.9399 18.3242H17.6721C17.3279 18.3242 17.0219 18.5876 17.0219 18.9638V25.3603C17.0601 25.7366 17.3279 26 17.6721 26ZM27.8852 26H35.153C35.4973 26 35.8033 25.7366 35.8033 25.3603V18.9638C35.8033 18.6252 35.5355 18.3242 35.153 18.3242H27.8852C27.541 18.3242 27.235 18.5876 27.235 18.9638V25.3603C27.235 25.7366 27.5027 26 27.8852 26ZM37.9454 26H45.2131C45.5574 26 45.8634 25.7366 45.8634 25.3603V18.9638C45.8634 18.6252 45.5956 18.3242 45.2131 18.3242H37.9454C37.6011 18.3242 37.2951 18.5876 37.2951 18.9638V25.3603C37.2951 25.7366 37.6011 26 37.9454 26ZM17.6721 16.8567H24.9399C25.2842 16.8567 25.5902 16.5557 25.5902 16.2171V9.82055C25.5902 9.48191 25.3224 9.18089 24.9399 9.18089H17.6721C17.3279 9.18089 17.0219 9.44428 17.0219 9.82055V16.2171C17.0601 16.5557 17.3279 16.8567 17.6721 16.8567ZM27.8852 16.8567H35.153C35.4973 16.8567 35.8033 16.5557 35.8033 16.2171V9.82055C35.8033 9.48191 35.5355 9.18089 35.153 9.18089H27.8852C27.541 9.18089 27.235 9.44428 27.235 9.82055V16.2171C27.235 16.5557 27.5027 16.8567 27.8852 16.8567ZM37.9454 16.8567H45.2131C45.5574 16.8567 45.8634 16.5557 45.8634 16.2171V9.82055C45.8634 9.48191 45.5574 9.18089 45.2131 9.18089H37.9454C37.6011 9.18089 37.2951 9.44428 37.2951 9.82055V16.2171C37.2951 16.5557 37.6011 16.8567 37.9454 16.8567ZM37.9454 7.67583H45.2131C45.5574 7.67583 45.8634 7.41245 45.8634 7.03618V0.639657C45.8634 0.301018 45.5574 0 45.2131 0H37.9454C37.6011 0 37.2951 0.263391 37.2951 0.639657V7.03618C37.2951 7.37482 37.6011 7.67583 37.9454 7.67583ZM48.082 26H55.3497C55.694 26 56 25.7366 56 25.3603V18.9638C56 18.6252 55.7322 18.3242 55.3497 18.3242H48.082C47.7377 18.3242 47.4317 18.5876 47.4317 18.9638V25.3603C47.4699 25.7366 47.7377 26 48.082 26Z" fill="#5E5F85"/>
</svg>
