<svg width="80" height="75" viewBox="0 0 80 75" fill="none" xmlns="http://www.w3.org/2000/svg">
<path d="M52.3031 61.0163H50.0112C49.3626 61.0163 48.9085 61.146 48.6491 61.4055C48.368 61.6649 48.2383 62.119 48.2383 62.746V70.6595H46.8545V62.6379C46.8545 62.0325 46.9626 61.3622 47.2869 60.8649C47.8707 59.9352 48.995 59.7622 49.8167 59.7622H52.3031V61.0163V61.0163Z" fill="#5E5F85"/>
<path d="M43.481 69.4486C42.8323 69.4486 42.3783 69.3189 42.1188 69.0594C41.8377 68.8 41.708 68.3676 41.708 67.7405V61.0378H44.5837V59.8054H41.708V56.5405H40.3242V67.827C40.3242 68.4324 40.4323 69.1027 40.7567 69.6C41.3404 70.5297 42.4648 70.7027 43.2864 70.7027H45.7729V69.4703H43.481V69.4486Z" fill="#5E5F85"/>
<path d="M7.58963 56.5189V59.7838H4.71396C2.96261 59.7838 1.90315 60.3027 1.2545 60.9298C0.238281 61.9027 0.238281 63.3081 0.238281 63.4595C0.238281 63.6325 0.238281 66.7892 0.238281 66.9622C0.238281 67.1135 0.238281 68.5189 1.2545 69.4919C1.90315 70.1189 2.96261 70.6379 4.71396 70.6379H5.98963C6.81125 70.6379 7.93558 70.4649 8.51936 69.5352C8.84369 69.0379 8.9518 68.3676 8.9518 67.7622V56.4757H7.58963V56.5189ZM7.17882 69.0379C6.89774 69.2973 6.46531 69.4271 5.81666 69.4271H4.58423C3.4599 69.4271 2.74639 69.1027 2.31396 68.6703C1.79504 68.173 1.62207 67.5244 1.62207 67.0054V63.4162C1.62207 62.8973 1.79504 62.2487 2.31396 61.7514C2.74639 61.319 3.4599 60.9946 4.58423 60.9946H7.58963V67.6973C7.58963 68.346 7.43828 68.7784 7.17882 69.0379Z" fill="#5E5F85"/>
<path d="M64.7142 61.773C65.1466 61.3406 65.8602 61.0162 66.9845 61.0162H70.2926V59.7838H67.1358C65.3845 59.7838 64.325 60.3027 63.6764 60.9298C62.6602 61.9027 62.6602 63.3081 62.6602 63.4595C62.6602 63.546 62.6602 66.8757 62.6602 66.9622C62.6602 67.1135 62.6602 68.5189 63.6764 69.4919C64.325 70.1189 65.3845 70.6379 67.1358 70.6379H70.2926V69.4054H66.9845C65.8602 69.4054 65.1466 69.0811 64.7142 68.6487C64.1953 68.1514 64.0223 67.5027 64.0223 66.9838V63.3946C64.0439 62.919 64.2169 62.2703 64.7142 61.773Z" fill="#5E5F85"/>
<path d="M38.9194 63.4811C38.9194 63.3297 38.9194 61.9243 37.9032 60.9514C37.2546 60.3243 36.1951 59.8054 34.4438 59.8054H31.3951V61.0378H34.5951C35.7194 61.0378 36.4329 61.3622 36.8654 61.7946C37.3843 62.2919 37.5573 62.9406 37.5573 63.4595V64.4973H33.1897C32.3681 64.4973 31.2438 64.6703 30.66 65.6C30.3356 66.0973 30.2275 66.7676 30.2275 67.373V67.8054C30.2275 68.4108 30.3356 69.0811 30.66 69.5784C31.2438 70.5081 32.3681 70.6811 33.1897 70.6811H35.9573C36.7789 70.6811 37.9032 70.5081 38.487 69.5784C38.8113 69.0811 38.9194 68.4108 38.9194 67.8054C38.9194 67.8054 38.9194 64.1946 38.9194 63.4811ZM37.1248 69.0378C36.8438 69.2973 36.4113 69.427 35.7627 69.427H33.3627C32.714 69.427 32.26 69.2973 32.0005 69.0378C31.7194 68.7784 31.5897 68.346 31.5897 67.7189V67.4162C31.5897 66.7892 31.7194 66.3568 32.0005 66.0973C32.2816 65.8379 32.714 65.7081 33.3627 65.7081H37.5573V67.7189C37.5356 68.346 37.4059 68.7784 37.1248 69.0378Z" fill="#5E5F85"/>
<path d="M61.5787 63.4811C61.5787 63.3297 61.5787 61.9243 60.5625 60.9514C59.9139 60.3243 58.8544 59.8054 57.1031 59.8054H54.0544V61.0378H57.2328C58.3571 61.0378 59.0706 61.3622 59.5031 61.7946C60.022 62.2919 60.195 62.9406 60.195 63.4595V64.4973H55.8274C55.0058 64.4973 53.8814 64.6703 53.2977 65.6C52.9733 66.0973 52.8652 66.7676 52.8652 67.373V67.8054C52.8652 68.4108 52.9733 69.0811 53.2977 69.5784C53.8814 70.5081 55.0058 70.6811 55.8274 70.6811H58.595C59.4166 70.6811 60.5409 70.5081 61.1247 69.5784C61.449 69.0811 61.5571 68.4108 61.5571 67.8054C61.5787 67.8054 61.5787 64.1946 61.5787 63.4811ZM59.7841 69.0378C59.5031 69.2973 59.0706 69.427 58.422 69.427H56.0004C55.3517 69.427 54.8977 69.2973 54.6382 69.0378C54.3571 68.7784 54.2274 68.346 54.2274 67.7189V67.4162C54.2274 66.7892 54.3571 66.3568 54.6382 66.0973C54.9193 65.8379 55.3517 65.7081 56.0004 65.7081H60.195V67.7189C60.195 68.346 60.0652 68.7784 59.7841 69.0378Z" fill="#5E5F85"/>
<path d="M19.8483 59.7838H18.4213L14.9402 68.8216L11.4807 59.7838H10.0537L14.2267 70.6811L12.9726 73.946H14.3997L19.8483 59.7838Z" fill="#5E5F85"/>
<path d="M29.1032 63.4811C29.1032 63.3297 29.1032 61.9243 28.1086 60.9514C27.4815 60.3243 26.4653 59.827 24.8221 59.8054H24.6707C23.0275 59.827 22.0113 60.346 21.3842 60.9514C20.3896 61.9243 20.3896 63.3297 20.3896 63.4811C20.3896 63.6541 20.3896 70.1189 20.3896 70.6811H21.7518V63.4378C21.7518 62.9189 21.9248 62.2703 22.4221 61.773C22.8545 61.3622 23.6545 61.0378 24.7356 61.0378C25.8167 61.0595 26.6383 61.3622 27.0491 61.773C27.5464 62.2703 27.7194 62.9189 27.7194 63.4378V70.6811H29.0815C29.1032 70.1189 29.1032 63.6541 29.1032 63.4811Z" fill="#5E5F85"/>
<path d="M78.7677 60.9298C78.1407 60.3027 77.1245 59.8054 75.4813 59.7838H75.3299C73.6867 59.8054 72.6705 60.3244 72.0434 60.9298C71.0488 61.9027 71.0488 63.3081 71.0488 63.4595V66.9622C71.0488 67.1135 71.0488 68.5189 72.0434 69.4919C72.6705 70.1189 73.6867 70.6162 75.3299 70.6379H78.5515V69.4054H75.3948C74.3137 69.3838 73.4921 69.0811 73.0813 68.6703C72.584 68.173 72.411 67.5244 72.411 67.0054V65.7081H79.7623V63.4379C79.7623 63.3298 79.7623 61.9244 78.7677 60.9298ZM72.411 64.4973V63.4162C72.411 62.8973 72.584 62.2487 73.0813 61.7514C73.5137 61.3406 74.3137 61.0162 75.3948 61.0162C76.4759 61.0379 77.2975 61.3406 77.7083 61.7514C78.2056 62.2487 78.3786 62.8973 78.3786 63.4162V64.4973H72.411Z" fill="#5E5F85"/>
<path d="M17.2549 18.2919C17.2765 20.627 17.363 24.3027 17.6441 28.4324C18.0981 35.4378 19.0062 41.6649 19.0062 41.6649L30.6603 30.573C30.6603 30.573 30.2279 25.0162 30.9197 16.7351C30.9197 16.7351 18.0116 15.1784 17.2549 18.2919Z" fill="#5E5F85"/>
<path d="M44.1308 46.4C47.1578 45.5352 46.2713 32.8649 46.2713 32.8649C37.947 33.146 32.4335 32.4541 32.4335 32.4541L20.7578 43.5244C20.7578 43.5244 26.9416 44.7352 33.9038 45.5352C37.8389 45.9892 43.1794 46.3568 43.9146 46.4C44.0011 46.4217 44.0875 46.4 44.1308 46.4Z" fill="#5E5F85"/>
<path d="M17.2547 17.5784C17.2547 17.7946 17.2547 18.0324 17.2547 18.2919C17.3844 17.7297 17.6007 17.3189 18.0763 16.7351C19.0277 15.5243 20.5844 15.2 21.2115 15.1135C24.3682 14.7027 29.0385 14.1838 33.7304 14.0541C42.0547 13.7946 47.5466 14.4865 47.5466 14.4865L59.2006 3.39459C59.2006 3.39459 53.0817 2.22703 46.0979 1.4054C41.5358 0.864864 37.5142 0.583783 35.2655 0.454053C35.1142 0.454053 33.4925 0.237837 31.979 1.68649C30.3142 3.26486 21.9682 11.1784 18.6169 14.3784C17.1466 15.8054 17.2547 17.427 17.2547 17.5784Z" fill="#5E5F85"/>
<path d="M44.736 46.4648C44.5198 46.4432 44.2819 46.4432 44.0225 46.4216C44.6062 46.3135 44.9954 46.1189 45.6225 45.6865C46.8765 44.7784 47.2873 43.2648 47.3954 42.6378C47.9576 39.5027 48.6927 34.8756 49.0819 30.1838C49.7522 21.881 49.3198 16.3675 49.3198 16.3675L60.9738 5.27563C60.9738 5.27563 61.8387 11.4378 62.3143 18.4432C62.617 23.027 62.7035 27.0486 62.7251 29.2973C62.7251 29.4486 62.8549 31.0702 61.3414 32.5189C59.6765 34.0973 51.3522 42.054 48.0008 45.254C46.5089 46.6594 44.8873 46.4648 44.736 46.4648Z" fill="#5E5F85"/>
</svg>
