<svg width="80" height="80" viewBox="0 0 80 80" fill="none" xmlns="http://www.w3.org/2000/svg">
<g clip-path="url(#clip0)">
<path d="M78.4912 36.4357L43.5625 1.50879C41.5522 -0.502769 38.2897 -0.502769 36.2769 1.50879L29.0237 8.76192L38.2247 17.9629C40.3628 17.2404 42.8147 17.725 44.5191 19.4294C46.2316 21.1447 46.7128 23.6175 45.9728 25.7625L54.84 34.63C56.9853 33.891 59.4606 34.3691 61.1741 36.0854C63.5687 38.4791 63.5687 42.3588 61.1741 44.7541C58.7787 47.1497 54.8991 47.1497 52.5025 44.7541C50.7012 42.951 50.2562 40.3057 51.1681 38.0866L42.8987 29.8172L42.8978 51.5788C43.4973 51.8752 44.0448 52.2667 44.5191 52.7382C46.9137 55.1319 46.9137 59.0119 44.5191 61.4091C42.1237 63.8035 38.2422 63.8035 35.8503 61.4091C33.4556 59.0119 33.4556 55.1322 35.8503 52.7385C36.4242 52.1643 37.1062 51.7096 37.8569 51.4007V29.4363C37.1051 29.1294 36.4227 28.6744 35.8503 28.0985C34.0359 26.2866 33.5997 23.6244 34.5294 21.3966L25.4594 12.3257L1.50937 36.2741C-0.503125 38.2875 -0.503125 41.5504 1.50937 43.5622L36.4387 78.4897C38.4497 80.5016 41.7116 80.5016 43.725 78.4897L78.4909 43.7244C80.5028 41.7119 80.5028 38.4472 78.4909 36.4357" fill="#5E5F85"/>
</g>
<defs>
<clipPath id="clip0">
<rect width="80" height="80" fill="white"/>
</clipPath>
</defs>
</svg>
