<svg width="80" height="78" viewBox="0 0 80 78" fill="none" xmlns="http://www.w3.org/2000/svg">
<g clip-path="url(#clip0)">
<path d="M39.8453 0C17.8422 0 0 17.8391 0 39.8453C0 57.4503 11.4169 72.3859 27.2487 77.6547C29.24 78.0234 29.9712 76.7903 29.9712 75.7378C29.9712 74.7878 29.9341 71.6487 29.9172 68.3194C18.8319 70.7297 16.4928 63.6181 16.4928 63.6181C14.6803 59.0125 12.0687 57.7881 12.0687 57.7881C8.45375 55.315 12.3413 55.3656 12.3413 55.3656C16.3425 55.6469 18.4494 59.4719 18.4494 59.4719C22.0031 65.5634 27.7706 63.8022 30.0444 62.7844C30.4019 60.2087 31.4347 58.4512 32.5741 57.4562C23.7241 56.4484 14.4203 53.0319 14.4203 37.7644C14.4203 33.4144 15.9769 29.8597 18.5259 27.0694C18.1122 26.0656 16.7484 22.0131 18.9119 16.5247C18.9119 16.5247 22.2578 15.4537 29.8722 20.6091C33.0503 19.7259 36.4591 19.2834 39.8453 19.2684C43.2316 19.2834 46.6428 19.7259 49.8272 20.6091C57.4325 15.4537 60.7737 16.5247 60.7737 16.5247C62.9425 22.0131 61.5781 26.0656 61.1644 27.0694C63.7191 29.8597 65.265 33.4141 65.265 37.7644C65.265 53.0681 55.9438 56.4381 47.0713 57.4244C48.5003 58.6609 49.7738 61.0859 49.7738 64.8031C49.7738 70.1344 49.7275 74.4253 49.7275 75.7378C49.7275 76.7981 50.4447 78.0406 52.4647 77.6494C68.2878 72.3747 79.6903 57.4444 79.6903 39.8453C79.6903 17.8391 61.8506 0 39.8453 0Z" fill="#5E5F85"/>
<path d="M14.9236 56.7606C14.8361 56.9584 14.5243 57.0178 14.2408 56.8822C13.9518 56.7522 13.7893 56.4822 13.883 56.2834C13.969 56.0797 14.2808 56.0228 14.5693 56.1597C14.859 56.2894 15.024 56.5619 14.9236 56.7606V56.7606ZM16.8836 58.5094C16.6936 58.6856 16.3221 58.6038 16.0699 58.3253C15.8093 58.0475 15.7605 57.6763 15.9533 57.4972C16.1493 57.3213 16.5096 57.4034 16.7708 57.6816C17.0315 57.9625 17.0821 58.3316 16.8833 58.5097L16.8836 58.5094ZM18.2283 60.7469C17.984 60.9166 17.5846 60.7575 17.338 60.4031C17.094 60.0491 17.094 59.6241 17.3433 59.4538C17.5908 59.2834 17.984 59.4366 18.234 59.7881C18.4777 60.1484 18.4777 60.5734 18.228 60.7472L18.2283 60.7469ZM20.5021 63.3384C20.2837 63.5791 19.8186 63.5147 19.478 63.1859C19.1299 62.8647 19.0327 62.4088 19.2518 62.1678C19.4727 61.9266 19.9405 61.9944 20.2836 62.3203C20.6296 62.6409 20.7352 63.1003 20.5024 63.3384H20.5021ZM23.4408 64.2134C23.3449 64.5253 22.8968 64.6672 22.4455 64.5347C21.9949 64.3981 21.6999 64.0325 21.7908 63.7172C21.8846 63.4031 22.3346 63.2553 22.7893 63.3972C23.2393 63.5331 23.5349 63.8959 23.4411 64.2134H23.4408ZM26.7858 64.5844C26.7971 64.9131 26.4143 65.1856 25.9405 65.1916C25.464 65.2019 25.0786 64.9359 25.0736 64.6128C25.0736 64.2809 25.4477 64.0109 25.924 64.0031C26.3977 63.9938 26.7858 64.2578 26.7858 64.5844V64.5844ZM30.0715 64.4584C30.1283 64.7791 29.799 65.1084 29.3286 65.1959C28.8661 65.2803 28.438 65.0825 28.379 64.7647C28.3215 64.4359 28.6571 64.1069 29.1186 64.0216C29.5899 63.9397 30.0115 64.1325 30.0715 64.4584" fill="#5E5F85"/>
</g>
<defs>
<clipPath id="clip0">
<rect width="80" height="77.824" fill="white"/>
</clipPath>
</defs>
</svg>
