<svg width="180" height="25" viewBox="0 0 180 25" fill="none" xmlns="http://www.w3.org/2000/svg">
<g clip-path="url(#clip0)">
<path d="M15.18 15.45C15.1292 16.4675 14.6962 17.4282 13.9676 18.1402C13.2389 18.8521 12.2684 19.2628 11.25 19.29C7.48 19.29 7.17 16.02 7.17 12.38C7.17 8.76 7.48 5.51 11.29 5.51C13.65 5.51 14.88 6.39 15.17 8.27H22.32C22.3 5.72 21.15 0 11.29 0C6.99 0 3.89 1.32 2.07 3.93C0.68 5.93 0 8.7 0 12.38C0 16.06 0.64 18.83 1.97 20.84C3.69 23.45 6.62 24.77 10.69 24.77C13.54 24.77 15.5 23.82 16.86 21.78L16.94 21.66L18.07 24.39H22.36V10.31H10.91V15.37H15.19L15.18 15.45Z" fill="#5E5F85"/>
<path d="M32.56 18.77V18.69L32.64 0.380005H25.5V24.39H37.06L39.12 18.77H32.56Z" fill="#5E5F85"/>
<path d="M48.6196 0.380005L40.1396 24.4H47.5696L48.8497 20.43H56.5097L56.5297 20.48L57.6897 24.39H65.1596L56.9697 0.380005H48.6196ZM50.1297 15.25L50.1596 15.15L52.6897 5.98001L55.2397 15.25H50.1297Z" fill="#5E5F85"/>
<path d="M86.7 16.92C86.7 13.24 84.49 11.42 78.26 9.97C78.03 9.92 77.81 9.87 77.58 9.81C75.34 9.3 73.22 8.82 73.22 7.29C73.22 5.99 74.16 5.33 76.01 5.33C78.42 5.33 79.42 6.26 79.45 8.54H86.44C86.41 2.88 82.97 0 76.21 0C69.85 0 66.2 2.78 66.2 7.63C66.2 11.39 68.52 13.39 74.22 14.54C78.51 15.37 79.76 15.99 79.76 17.29C79.76 18.67 78.66 19.4 76.59 19.4C73.97 19.4 72.84 18.36 72.81 15.93H65.71C65.74 21.96 69.24 24.77 76.74 24.77C82.79 24.77 86.7 21.69 86.7 16.92Z" fill="#5E5F85"/>
<path d="M109.93 16.92C109.93 13.24 107.72 11.42 101.49 9.97C101.26 9.92 101.04 9.87 100.81 9.81C98.5704 9.3 96.4504 8.82 96.4504 7.29C96.4504 5.99 97.3904 5.33 99.2404 5.33C101.65 5.33 102.65 6.26 102.68 8.54H109.67C109.64 2.88 106.2 0 99.4404 0C93.0804 0 89.4304 2.78 89.4304 7.63C89.4304 11.39 91.7504 13.39 97.4504 14.54C101.74 15.37 102.99 15.99 102.99 17.29C102.99 18.67 101.89 19.4 99.8204 19.4C97.2004 19.4 96.0704 18.36 96.0404 15.93H88.9404C88.9704 21.96 92.4704 24.77 99.9704 24.77C106.02 24.77 109.93 21.69 109.93 16.92Z" fill="#5E5F85"/>
<path d="M132.66 16.92C132.66 14.68 130.99 12.03 128.5 11.67L127.99 11.6L128.5 11.53C131.04 11.16 131.99 8.62001 131.99 7.11001C131.99 2.52001 128.95 0.390015 122.44 0.390015H112.7V24.41H122.37C131.49 24.39 132.66 20.4 132.66 16.92ZM119.79 5.55001H122.36C124.52 5.55001 124.97 6.38001 124.97 7.63001C124.97 8.73001 124.64 9.74002 122.29 9.74002H119.8V5.55001H119.79ZM122.5 19.37H119.78V14.69H122.61C125.1 14.69 125.44 15.78 125.44 16.96C125.45 18.08 125.11 19.37 122.5 19.37V19.37Z" fill="#5E5F85"/>
<path d="M172.06 24.39H180L172.23 11.67L172.25 11.63L179.39 0.380005H170.97L168.24 6.72001L165.47 0.380005H157.05L164.28 11.67L164.26 11.71L156.48 24.39H164.38L168.24 16.56L172.06 24.39Z" fill="#5E5F85"/>
<path d="M135.507 15.9314C137.981 22.6095 141.241 24.2677 147.743 23.9666C149.326 23.8932 151.143 23.3816 151.74 21.9134C152.023 21.2185 152.022 20.4622 151.771 19.7551C151.74 19.6681 151.706 19.5842 151.669 19.5027C151.064 18.1853 149.418 17.8725 147.988 17.6344C147.264 17.5138 146.654 17.332 146.171 16.9147C145.597 16.4183 145.133 15.7299 145.019 14.9795C144.989 14.7833 144.985 14.5802 144.99 14.3544C145.001 13.8157 145.08 13.2764 145.251 12.7654C145.42 12.2609 145.587 11.9354 145.948 11.741C146.82 11.2726 148.018 12.1676 148.533 13.0129C149.114 13.9676 149.651 14.7765 150.707 15.1412C152.316 15.6966 153.563 15.9461 155.055 15.9368C156.665 15.9268 158.309 15.1156 158.646 13.5417C159.018 11.7463 159.105 10.5254 158.868 8.7131C158.747 7.78711 158.453 6.88789 157.983 6.08093C157.021 4.43021 156.018 3.37389 154.4 2.14111C153.801 1.68424 153.136 1.3163 152.43 1.0518C148.801 -0.308313 146.232 -0.396676 142.053 1.06468C141.32 1.32111 140.624 1.68482 140.004 2.1518C135.619 5.45068 134.901 8.37886 135.01 13.2739C135.03 14.1789 135.192 15.0826 135.507 15.9314Z" fill="#5E5F85"/>
<path d="M157.9 15.2404C157.911 14.8092 157.847 14.3794 157.71 13.9704C157.465 13.2963 156.986 12.7326 156.361 12.382C155.735 12.0313 155.004 11.9171 154.301 12.0601C153.598 12.2031 152.97 12.5937 152.531 13.161C152.093 13.7282 151.872 14.4342 151.91 15.1504C151.918 16.5704 151.424 17.9474 150.516 19.0388C149.607 20.1301 148.342 20.8656 146.945 21.1155C145.547 21.3654 144.106 21.1137 142.875 20.4047C141.645 19.6958 140.705 18.5751 140.22 17.2404C140.133 16.9913 140.059 16.7376 140 16.4804C140.092 17.0384 140.232 17.5872 140.42 18.1204C141.108 20.0189 142.412 21.6317 144.125 22.7007C145.838 23.7696 147.86 24.2329 149.868 24.0162C151.875 23.7996 153.752 22.9156 155.197 21.5058C156.643 20.0959 157.573 18.2419 157.84 16.2404C157.884 15.909 157.904 15.5748 157.9 15.2404V15.2404Z" fill="#101120"/>
<path d="M157.28 17.48C157.875 16.2139 158.244 14.8533 158.37 13.46C158.096 15.4579 157.16 17.3064 155.713 18.7104C154.265 20.1145 152.389 20.9931 150.384 21.2061C148.379 21.419 146.36 20.954 144.65 19.8853C142.94 18.8166 141.637 17.2058 140.95 15.31C140.757 14.7747 140.616 14.2222 140.53 13.66V13.66C140.234 12.3015 140.418 10.8825 141.05 9.64448C141.683 8.40646 142.725 7.42599 144 6.87C141.967 7.64342 140.283 9.12409 139.255 11.04C138.227 12.9559 137.925 15.1784 138.404 17.2993C138.883 19.4201 140.111 21.2968 141.863 22.5848C143.615 23.8727 145.772 24.4853 147.94 24.31C149.946 24.0511 151.854 23.2892 153.487 22.0951C155.12 20.901 156.425 19.3134 157.28 17.48V17.48Z" fill="#101120"/>
</g>
<defs>
<clipPath id="clip0">
<rect width="180" height="24.77" fill="white"/>
</clipPath>
</defs>
</svg>
