<svg width="80" height="89" viewBox="0 0 80 89" fill="none" xmlns="http://www.w3.org/2000/svg">
<path d="M79.8563 39.364C79.7126 37.9034 79.4732 36.2273 78.9943 34.3596C78.5154 32.5158 77.7971 30.4805 76.7435 28.3733C75.6899 26.2662 74.325 24.0872 72.5531 21.9561C71.8587 21.118 71.0925 20.3039 70.2783 19.5137C71.4995 14.6529 68.7938 10.4386 68.7938 10.4386C64.1245 10.1512 61.1553 11.8992 60.0539 12.6894C59.8623 12.6176 59.6947 12.5218 59.5031 12.4499C58.713 12.1387 57.8988 11.8274 57.0368 11.564C56.1987 11.3006 55.3367 11.0611 54.4508 10.8456C53.5648 10.6301 52.6788 10.4625 51.7689 10.3188C51.6013 10.2949 51.4576 10.271 51.29 10.247C49.2547 3.73399 43.4121 1.00427 43.4121 1.00427C36.8752 5.14674 35.654 10.9414 35.654 10.9414C35.654 10.9414 35.63 11.0611 35.5822 11.2766C35.223 11.3724 34.8638 11.4922 34.5046 11.5879C34.0018 11.7316 33.4989 11.9232 33.02 12.1147C32.5172 12.3063 32.0383 12.4978 31.5355 12.7133C30.5537 13.1444 29.572 13.6232 28.6142 14.15C27.6803 14.6768 26.7704 15.2515 25.8845 15.8501L25.645 15.7543C16.5938 12.3063 8.57228 16.4487 8.57228 16.4487C7.82999 26.0746 12.188 32.1327 13.05 33.2341C12.8345 33.8328 12.6429 34.4314 12.4514 35.03C11.7809 37.209 11.2781 39.4359 10.9668 41.7585C10.9189 42.0938 10.871 42.429 10.8471 42.7642C2.46633 46.9067 0 55.3593 0 55.3593C6.96797 63.3808 15.1092 63.8837 15.1092 63.8837L15.1332 63.8597C16.1628 65.7035 17.3601 67.4514 18.701 69.1036C19.2757 69.798 19.8503 70.4446 20.4729 71.0911C17.9347 78.3703 20.8321 84.4044 20.8321 84.4044C28.5902 84.6918 33.6905 81.0043 34.768 80.1662C35.5343 80.4296 36.3244 80.669 37.1146 80.8606C39.5091 81.4832 41.9515 81.8423 44.3939 81.9381C44.9925 81.9621 45.6151 81.986 46.2137 81.9621H47.0757L47.4588 81.9381V81.9621C51.1224 87.1821 57.5397 87.9244 57.5397 87.9244C62.1131 83.1114 62.3765 78.3224 62.3765 77.2928V77.221V77.0773V76.8618C63.3343 76.1913 64.2442 75.473 65.1062 74.6828C66.9261 73.0306 68.5304 71.139 69.8713 69.1036L70.2305 68.529C75.4026 68.8163 79.0661 65.3203 79.0661 65.3203C78.2041 59.9327 75.1392 57.2988 74.4927 56.796C73.8461 56.2931 74.4687 56.772 74.4208 56.7481C74.3729 56.7241 74.3729 56.7002 74.3729 56.7002C74.349 56.6762 74.3011 56.6523 74.2532 56.6283C74.2772 56.2931 74.3011 55.9818 74.325 55.6466C74.3729 55.0719 74.3729 54.4733 74.3729 53.8986V53.1324V52.9887L74.349 52.6295L74.325 52.1506C74.325 51.983 74.3011 51.8394 74.2772 51.6957C74.2532 51.552 74.2532 51.3844 74.2293 51.2407L74.1814 50.7858L74.1095 50.3308C74.0138 49.7322 73.918 49.1575 73.7743 48.5589C73.2236 46.2362 72.3137 44.0333 71.1404 42.0459C69.9431 40.0584 68.4585 38.3105 66.7584 36.8259C65.0823 35.3413 63.1907 34.144 61.2272 33.2581C59.2397 32.3721 57.1805 31.7974 55.1212 31.5341C54.0916 31.3904 53.062 31.3425 52.0323 31.3664H51.2661L50.883 31.3904C50.7393 31.3904 50.5956 31.4143 50.4759 31.4143C49.9491 31.4622 49.4223 31.5341 48.9195 31.6298C46.8602 32.013 44.9207 32.7552 43.2206 33.7849C41.5205 34.8145 40.0359 36.0836 38.8387 37.5203C37.6414 38.957 36.7076 40.5613 36.0611 42.2135C35.4145 43.8657 35.0554 45.5897 34.9596 47.2419C34.9356 47.649 34.9356 48.08 34.9356 48.4871V48.7983L34.9596 49.1336C34.9835 49.3251 34.9835 49.5406 35.0075 49.7322C35.0793 50.5703 35.2469 51.3844 35.4624 52.1506C35.9174 53.7071 36.6357 55.1198 37.5217 56.3171C38.4077 57.5143 39.4852 58.496 40.6106 59.2862C41.736 60.0525 42.9572 60.6032 44.1544 60.9624C45.3517 61.3215 46.5489 61.4652 47.6743 61.4652H48.2969C48.3687 61.4652 48.4406 61.4652 48.5124 61.4413C48.6321 61.4413 48.7519 61.4173 48.8716 61.4173C48.8955 61.4173 48.9434 61.4173 48.9674 61.3934L49.0871 61.3694C49.1589 61.3694 49.2308 61.3455 49.3026 61.3455C49.4463 61.3215 49.566 61.2976 49.7097 61.2737C49.8533 61.2497 49.9731 61.2258 50.0928 61.1779C50.3562 61.13 50.5956 61.0342 50.8351 60.9624C51.314 60.7948 51.7929 60.6032 52.1999 60.3877C52.6309 60.1722 53.0141 59.9088 53.3972 59.6693C53.493 59.5975 53.6127 59.5257 53.7085 59.4299C54.0916 59.1186 54.1634 58.5439 53.8521 58.1608C53.5887 57.8256 53.1098 57.7298 52.7267 57.9453L52.4394 58.089C52.1042 58.2566 51.7689 58.4003 51.4097 58.52C51.0506 58.6397 50.6675 58.7355 50.2843 58.8073C50.0928 58.8313 49.9012 58.8552 49.6857 58.8792C49.5899 58.8792 49.4942 58.9031 49.3744 58.9031H48.7998C48.68 58.9031 48.5603 58.9031 48.4406 58.8792H48.2969C48.249 58.8792 48.1772 58.8792 48.1293 58.8552C48.0096 58.8313 47.9138 58.8313 47.7941 58.8073C46.9081 58.6876 46.0221 58.4242 45.1841 58.0411C44.3221 57.658 43.5079 57.1312 42.7656 56.4607C42.0233 55.7903 41.3768 55.0001 40.874 54.0902C40.3711 53.1803 40.012 52.1746 39.8444 51.121C39.7725 50.5942 39.7246 50.0435 39.7486 49.5167C39.7486 49.373 39.7725 49.2294 39.7725 49.0857V48.8941C39.7725 48.8223 39.7965 48.7505 39.7965 48.6786C39.8204 48.3913 39.8683 48.1039 39.9162 47.8166C40.3233 45.5179 41.4726 43.2671 43.2445 41.567C43.6995 41.136 44.1784 40.7529 44.6812 40.3937C45.1841 40.0345 45.7348 39.7232 46.3095 39.4598C46.8842 39.1964 47.4588 38.9809 48.0814 38.8133C48.68 38.6457 49.3026 38.5499 49.9491 38.4781C50.2604 38.4541 50.5717 38.4302 50.9069 38.4302H51.6492L51.9126 38.4541C52.607 38.502 53.2775 38.5978 53.9479 38.7654C55.2888 39.0528 56.6058 39.5556 57.827 40.2261C60.2694 41.5909 62.3526 43.6981 63.6217 46.2362C64.2682 47.5053 64.7231 48.8702 64.9386 50.2829C64.9865 50.6421 65.0344 51.0013 65.0584 51.3605L65.0823 51.6238L65.1062 51.8872V52.9169C65.1062 53.0845 65.0823 53.3718 65.0823 53.5394C65.0584 53.9226 65.0105 54.3296 64.9626 54.7127C64.9147 55.0959 64.8429 55.479 64.771 55.8621C64.6992 56.2452 64.6034 56.6283 64.5076 56.9875C64.3161 57.7298 64.0766 58.4721 63.7893 59.2144C63.2146 60.6511 62.4484 62.0399 61.5385 63.309C59.6947 65.8471 57.1805 67.9064 54.3071 69.2234C52.8704 69.8699 51.3619 70.3488 49.8054 70.5882C49.0392 70.7319 48.249 70.8037 47.4588 70.8277H46.2616C45.8306 70.8277 45.4235 70.8037 44.9925 70.7558C43.3164 70.6361 41.6642 70.3248 40.0359 69.8699C38.4316 69.4149 36.8752 68.7684 35.3906 68.0022C32.4454 66.4218 29.7875 64.2668 27.7282 61.6568C26.6986 60.3637 25.7887 58.951 25.0464 57.4904C24.3041 56.0297 23.7055 54.4733 23.2745 52.9169C22.8435 51.3365 22.5801 49.7322 22.4603 48.1039L22.4364 47.7927V46.4278V46.2602V45.6616C22.4603 44.8714 22.5322 44.0333 22.628 43.2192C22.7237 42.4051 22.8674 41.567 23.035 40.7529C23.2026 39.9387 23.3942 39.1246 23.6336 38.3105C24.0886 36.7062 24.6633 35.1497 25.3337 33.6891C26.6986 30.7678 28.4705 28.1578 30.6016 26.0746C31.1284 25.5478 31.6791 25.0689 32.2538 24.59C32.8285 24.1351 33.4271 23.7041 34.0497 23.297C34.6483 22.8899 35.2948 22.5308 35.9413 22.1955C36.2526 22.0279 36.5878 21.8603 36.9231 21.7166L37.4259 21.5011L37.9288 21.2856C38.5992 20.9983 39.2936 20.7588 40.012 20.5433C40.1796 20.4954 40.3711 20.4476 40.5388 20.3757C40.7064 20.3278 40.8979 20.2799 41.0655 20.232C41.4247 20.1363 41.7839 20.0405 42.1431 19.9687C42.3107 19.9208 42.5022 19.8968 42.6938 19.8489C42.8854 19.801 43.053 19.7771 43.2445 19.7292C43.4361 19.7053 43.6037 19.6574 43.7953 19.6334L44.0587 19.5855L44.346 19.5376C44.5376 19.5137 44.7052 19.4898 44.8967 19.4658C45.1122 19.4419 45.3038 19.4179 45.5193 19.394C45.6869 19.37 45.9743 19.3461 46.1419 19.3221C46.2616 19.2982 46.4053 19.2982 46.525 19.2743L46.7884 19.2503L46.9081 19.2264H47.0518C47.2673 19.2024 47.4588 19.2024 47.6743 19.1785L47.9856 19.1545H48.2251C48.3927 19.1545 48.5843 19.1306 48.7519 19.1306C49.4463 19.1066 50.1646 19.1066 50.859 19.1306C52.2478 19.1785 53.6127 19.3461 54.9297 19.5855C57.5875 20.0884 60.0778 20.9265 62.3526 22.0519C64.6273 23.1533 66.6387 24.5182 68.4106 26.0028C68.5304 26.0986 68.6262 26.1943 68.7459 26.2901C68.8417 26.3859 68.9614 26.4817 69.0572 26.5775C69.2727 26.769 69.4642 26.9606 69.6797 27.1521C69.8952 27.3437 70.0868 27.5353 70.2783 27.7268C70.4699 27.9184 70.6615 28.1099 70.853 28.3254C71.5953 29.1156 72.2897 29.9058 72.9123 30.7199C74.1574 32.3242 75.1631 33.9525 75.9533 35.485L76.097 35.7723L76.2406 36.0596C76.3364 36.2512 76.4322 36.4428 76.504 36.6343C76.5998 36.8259 76.6716 36.9935 76.7674 37.1851C76.8393 37.3766 76.935 37.5442 77.0069 37.7358C77.2942 38.4541 77.5815 39.1485 77.7971 39.7951C78.1562 40.8486 78.4196 41.7825 78.6351 42.5966C78.707 42.9318 79.0182 43.1473 79.3535 43.0995C79.7126 43.0755 79.976 42.7882 79.976 42.429C80 41.567 79.976 40.5373 79.8563 39.364V39.364Z" fill="#5E5F85"/>
</svg>
