<svg width="80" height="113" viewBox="0 0 80 113" fill="none" xmlns="http://www.w3.org/2000/svg">
<g clip-path="url(#clip0)">
<path d="M7.28028 103.856L0 22.1965H80L72.7118 103.843L39.9509 112.926L7.28028 103.856Z" fill="#5E5F85"/>
<path d="M39.999 105.983L66.4714 98.6442L72.6997 28.8734H39.999V105.983Z" fill="#5E5F85"/>
<path d="M40.0001 59.1597H26.7473L25.8321 48.904H40.0001V38.8887H14.8867L15.1265 41.5756L17.588 69.1748H40.0001V59.1597ZM40.0001 85.1704L39.9564 85.182L28.8022 82.1702L28.0892 74.1826H18.0355L19.4386 89.908L39.954 95.6032L40.0001 95.5904V85.1704Z" fill="#101120"/>
<path d="M7.44336 0.00512695H12.5329V5.03362H17.1887V0.00512695H22.2785V15.2326H17.1889V10.1336H12.5332V15.2326H7.4438V0.00512695H7.44336V0.00512695ZM28.9715 5.05479H24.491V0.00512695H38.5444V5.05479H34.0617V15.2326H28.9719L28.9715 5.05479V5.05479ZM40.7745 0.00512695H46.0814L49.3459 5.35562L52.6074 0.00512695H57.9164V15.2326H52.8478V7.68505L49.3461 13.0993H49.2588L45.7545 7.68505V15.2326H40.7748V0.00512695H40.7745ZM60.4494 0.00512695H65.5405V10.1993H72.698V15.2326H60.4494V0.00512695Z" fill="#5E5F85"/>
<path d="M39.9648 59.1597V69.1748H52.2972L51.1347 82.1638L39.9648 85.1787V95.5983L60.4963 89.908L60.6469 88.2159L63.0004 61.8491L63.2447 59.1597H60.5459H39.9648ZM39.9648 38.8887V48.904H64.156L64.3569 46.6529L64.8133 41.5756L65.0528 38.8887H39.9648Z" fill="#101120"/>
</g>
<defs>
<clipPath id="clip0">
<rect width="80" height="112.931" fill="white"/>
</clipPath>
</defs>
</svg>
