<svg width="80" height="80" viewBox="0 0 80 80" fill="none" xmlns="http://www.w3.org/2000/svg">
<path d="M0 0H80V80H0V0Z" fill="#5E5F85"/>
<path d="M73.4522 60.9202C72.8667 57.27 70.4864 54.2053 63.437 51.346C60.9883 50.2205 58.2583 49.4145 57.4446 47.5589C57.1556 46.4791 57.1176 45.8707 57.3001 45.2167C57.8248 43.095 60.3572 42.4334 62.3648 43.0418C63.6575 43.4753 64.8819 44.4715 65.6195 46.0608C69.072 43.8252 69.0644 43.8403 71.475 42.3042C70.5929 40.9354 70.1214 40.3042 69.5435 39.7187C67.4674 37.3993 64.6385 36.2054 60.1138 36.2966C59.3305 36.3955 58.5397 36.5019 57.7564 36.6008C55.4979 37.1711 53.3458 38.3575 52.0834 39.9468C48.2963 44.2434 49.3762 51.7643 53.9845 54.8594C58.5245 58.2663 65.1937 59.0419 66.0454 62.2283C66.8743 66.1294 63.1785 67.3917 59.5055 66.9431C56.7982 66.3804 55.2926 65.0039 53.6651 62.502C50.669 64.2359 50.669 64.2359 47.5892 66.0077C48.3192 67.6047 49.0872 68.3271 50.3116 69.7112C56.1063 75.5895 70.6081 75.3005 73.2089 66.4032C73.3153 66.0989 74.015 64.0609 73.4522 60.9202ZM43.4902 36.768H36.0074C36.0074 43.2319 35.977 49.6502 35.977 56.1141C35.977 60.2282 36.1899 64 35.5207 65.1559C34.4257 67.4296 31.5892 67.1483 30.2964 66.7072C28.9808 66.0608 28.3116 65.1407 27.5359 63.8404C27.323 63.4677 27.1633 63.1788 27.11 63.1559C25.0797 64.3955 23.0568 65.6426 21.0264 66.8822C22.0378 68.9582 23.5283 70.7605 25.437 71.9316C28.2887 73.6426 32.1214 74.1673 36.1291 73.2471C38.7375 72.4867 40.9883 70.9126 42.167 68.5172C43.8705 65.3765 43.5055 61.5742 43.4902 57.3688C43.5283 50.5095 43.4902 43.6502 43.4902 36.768Z" fill="#101120"/>
</svg>
