<svg width="80" height="109" viewBox="0 0 80 109" fill="none" xmlns="http://www.w3.org/2000/svg">
<g clip-path="url(#clip0)">
<path d="M25.7938 83.5722C25.7938 83.5722 21.6701 85.9702 28.7287 86.7816C37.2802 87.7571 41.6504 87.6174 51.0743 85.8337C51.0743 85.8337 53.552 87.3872 57.0118 88.7329C35.8866 97.7867 9.2008 88.2083 25.7938 83.5722ZM23.2124 71.7572C23.2124 71.7572 18.5871 75.181 25.651 75.9115C34.7859 76.8539 41.9997 76.9311 54.4828 74.5274C54.4828 74.5274 56.2094 76.2777 58.9243 77.2351C33.3823 84.7039 4.93335 77.824 23.2124 71.7572Z" fill="#5E5F85"/>
<path d="M44.9756 51.7154C50.181 57.7082 43.608 63.1011 43.608 63.1011C43.608 63.1011 56.825 56.2781 50.755 47.7339C45.0859 39.7664 40.7381 35.807 64.2741 22.1572C64.2741 22.1572 27.3305 31.3839 44.9756 51.7151" fill="#5E5F85"/>
<path d="M72.9145 92.3113C72.9145 92.3113 75.9662 94.8256 69.5535 96.7709C57.3598 100.465 18.8014 101.58 8.08996 96.9181C4.23962 95.2433 11.4604 92.9187 13.7316 92.4307C16.1003 91.917 17.4541 92.0129 17.4541 92.0129C13.172 88.9962 -10.2237 97.9361 5.57035 100.496C48.6427 107.481 84.0868 97.3508 72.9145 92.3113ZM27.7766 59.5157C27.7766 59.5157 8.1637 64.1744 20.8314 65.8657C26.1799 66.5818 36.8423 66.42 46.7742 65.5876C54.8911 64.9033 63.0414 63.4473 63.0414 63.4473C63.0414 63.4473 60.1793 64.673 58.1087 66.0869C38.1918 71.3251 -0.284047 68.8883 10.7927 63.5301C20.1603 59.002 27.7769 59.5157 27.7769 59.5157H27.7766ZM62.9604 79.1821C83.2073 68.6612 73.8459 58.5509 67.312 59.9131C65.7103 60.2462 64.9964 60.5349 64.9964 60.5349C64.9964 60.5349 65.591 59.6038 66.7264 59.2008C79.6525 54.6561 89.5938 72.604 62.5536 79.7123C62.5536 79.7126 62.867 79.4326 62.9604 79.1821Z" fill="#5E5F85"/>
<path d="M50.755 0.116035C50.755 0.116035 61.968 11.3331 40.1201 28.5807C22.6007 42.4167 36.1251 50.3055 40.1129 59.3188C29.8864 50.0921 22.3813 41.9696 27.4165 34.4101C34.8063 23.3128 55.279 17.9327 50.755 0.115723" fill="#5E5F85"/>
<path d="M29.7664 107.691C49.2006 108.935 79.0437 107.001 79.7505 97.8051C79.7505 97.8051 78.392 101.291 63.6893 104.06C47.1019 107.181 26.6438 106.817 14.5098 104.816C14.5101 104.816 16.9938 106.872 29.7668 107.691" fill="#5E5F85"/>
</g>
<defs>
<clipPath id="clip0">
<rect width="80" height="108.108" fill="white"/>
</clipPath>
</defs>
</svg>
