<svg width="80" height="85" viewBox="0 0 80 85" fill="none" xmlns="http://www.w3.org/2000/svg">
<g clip-path="url(#clip0)">
<path d="M79.0207 40.012L43.0024 3.99364L39.5123 0.50354L12.3986 27.6172L0.000149965 40.012C-0.619147 40.6345 -0.966797 41.4768 -0.966797 42.3549C-0.966797 43.233 -0.619147 44.0753 0.000149965 44.6978L24.7709 69.4686L39.5123 84.2063L66.6223 57.0926L67.0445 56.674L79.0207 44.7165C79.3311 44.4084 79.5774 44.042 79.7455 43.6382C79.9136 43.2345 80.0001 42.8015 80.0001 42.3642C80.0001 41.9269 79.9136 41.4939 79.7455 41.0902C79.5774 40.6865 79.3311 40.3201 79.0207 40.012ZM39.5123 54.7309L27.1363 42.3549L39.5123 29.9789L51.8846 42.3549L39.5123 54.7309Z" fill="#5E5F85"/>
<path d="M39.5116 29.9789C35.6193 26.0876 33.4251 20.814 33.4083 15.3102C33.3915 9.80638 35.5534 4.51955 39.4219 0.604492L12.3418 27.6734L27.0795 42.411L39.5116 29.9789Z" fill="#5E5F85"/>
<path d="M51.9187 42.3213L39.5127 54.731C43.4197 58.639 45.6145 63.9388 45.6145 69.4649C45.6145 74.9909 43.4197 80.2908 39.5127 84.1988L66.6676 57.0589L51.9187 42.3213Z" fill="#5E5F85"/>
</g>
<defs>
<clipPath id="clip0">
<rect width="80" height="84.7099" fill="white"/>
</clipPath>
</defs>
</svg>
