<svg width="80" height="78" viewBox="0 0 80 78" fill="none" xmlns="http://www.w3.org/2000/svg">
<g clip-path="url(#clip0)">
<path d="M25.6516 76.5477C23.7935 76.5477 22.0388 75.722 20.8516 74.2252L2.78754 51.7736C1.60035 50.2767 1.13598 48.3674 1.60035 46.5089L8.05192 18.4833C8.46473 16.6252 9.70348 15.1283 11.4069 14.3027L37.5229 1.81206C38.3488 1.39956 39.2779 1.19299 40.2069 1.19299C41.136 1.19299 42.0647 1.39924 42.8907 1.81237L69.0069 14.2511C70.71 15.0767 71.9488 16.5736 72.3616 18.4317L78.8132 46.4574C79.2263 48.3155 78.8132 50.2252 77.6263 51.7221L59.5616 74.1736C58.3744 75.6186 56.6197 76.4961 54.7616 76.4961L25.6522 76.5477H25.6516Z" fill="#5E5F85"/>
<path d="M40.1546 2.48331C40.8774 2.48331 41.5999 2.638 42.2708 2.94769L68.3871 15.3864C69.7289 16.0574 70.7611 17.2961 71.0708 18.7414L77.5224 46.7671C77.8836 48.2639 77.5224 49.8124 76.5418 50.9993L58.4774 73.4511C57.5483 74.638 56.103 75.3089 54.6064 75.3089H25.6514C24.1546 75.3089 22.7096 74.638 21.7805 73.4511L3.71612 50.9993C2.78706 49.8124 2.4255 48.2639 2.7355 46.7671L9.18706 18.7414C9.54831 17.2446 10.5289 16.0058 11.8708 15.3864L37.9874 2.89644C38.6583 2.63831 39.4324 2.48362 40.1549 2.48362L40.1546 2.48331ZM40.1546 0.057373C39.0708 0.057373 37.9871 0.315498 36.9546 0.779873L10.8386 13.2705C8.77394 14.2511 7.32894 16.0574 6.81269 18.2767L0.361124 46.3027C-0.154813 48.5221 0.361124 50.793 1.80644 52.5996L19.8708 75.0511C21.2646 76.8058 23.3805 77.7864 25.5999 77.7864H54.5546C56.7739 77.7864 58.8902 76.8058 60.2836 75.0511L78.3483 52.5992C79.7933 50.8446 80.3096 48.5221 79.7933 46.3024L73.3418 18.2767C72.8258 16.0574 71.3805 14.2511 69.3161 13.2705L43.303 0.779561C42.3224 0.315498 41.2386 0.057373 40.1546 0.057373V0.057373Z" fill="#101120"/>
<path d="M66.3225 44.5476C66.2709 44.5476 66.2709 44.5476 66.3225 44.5476H66.2709C66.2194 44.5476 66.1678 44.5476 66.1678 44.496C66.0647 44.496 65.9616 44.4445 65.8581 44.4445C65.4969 44.3929 65.1872 44.3413 64.8775 44.3413C64.7225 44.3413 64.5678 44.3413 64.3612 44.2895H64.3097C63.2259 44.1863 62.3484 44.0832 61.5225 43.8251C61.1612 43.6701 61.0581 43.4638 60.9547 43.2573C60.9547 43.2057 60.9031 43.2057 60.9031 43.1542L60.2322 42.9479C60.5492 40.5199 60.4268 38.0547 59.8709 35.6701C59.3074 33.2656 58.3293 30.9777 56.9806 28.9089L57.4969 28.4445V28.3414C57.4969 28.0832 57.5484 27.8251 57.7547 27.567C58.3741 26.9992 59.1484 26.5348 60.0775 25.967C60.2322 25.8638 60.3869 25.8123 60.5419 25.7089C60.8516 25.5542 61.1097 25.3995 61.4194 25.1929C61.4709 25.1414 61.5741 25.0898 61.6775 24.9867C61.7291 24.9348 61.7806 24.9348 61.7806 24.8832C62.5031 24.2639 62.6581 23.2317 62.1419 22.5604C61.8837 22.1992 61.4194 21.9929 60.9547 21.9929C60.5422 21.9929 60.1806 22.1476 59.8194 22.4057L59.7162 22.5089C59.6131 22.5604 59.5612 22.6639 59.4581 22.7154C59.2 22.9735 58.9934 23.1798 58.7872 23.4379C58.6841 23.541 58.5809 23.696 58.4259 23.7992C57.7031 24.5735 57.0322 25.1929 56.3612 25.6573C56.2066 25.7604 56.0519 25.8123 55.8969 25.8123C55.7937 25.8123 55.6903 25.8123 55.5872 25.7604H55.4841L54.8644 26.1735C54.1934 25.451 53.4709 24.8317 52.7484 24.2123C49.6373 21.7805 45.8931 20.2935 41.9613 19.9282L41.9097 19.2573L41.8066 19.1542C41.6516 18.9992 41.4453 18.8445 41.3934 18.4832C41.3419 17.6573 41.4453 16.7282 41.5484 15.696V15.6445C41.5484 15.4895 41.6 15.2832 41.6516 15.1282C41.7031 14.8189 41.7547 14.5089 41.8066 14.1476V13.6832C41.8066 12.7542 41.0837 11.9801 40.2066 11.9801C39.7934 11.9801 39.3806 12.1864 39.0709 12.496C38.7616 12.8057 38.6066 13.2185 38.6066 13.6832V14.096C38.6066 14.4573 38.6581 14.767 38.7613 15.0767C38.8128 15.2317 38.8128 15.3864 38.8644 15.5929V15.6445C38.9675 16.6767 39.1225 17.6057 39.0194 18.4317C38.9678 18.7929 38.7613 18.9476 38.6066 19.1026L38.5034 19.2057L38.4516 19.8767C37.5225 19.9798 36.5934 20.0829 35.6644 20.2895C31.6903 21.167 28.1806 23.1801 25.4453 26.0701L24.9291 25.7089H24.8259C24.7228 25.7089 24.6194 25.7604 24.5163 25.7604C24.3613 25.7604 24.2066 25.7089 24.0516 25.6057C23.3806 25.1414 22.7097 24.4701 21.9872 23.696C21.8841 23.5929 21.7809 23.4379 21.6259 23.3348C21.4194 23.0767 21.2128 22.8701 20.9547 22.6123C20.9031 22.5604 20.8 22.5092 20.6969 22.4057C20.6453 22.3542 20.5938 22.3542 20.5938 22.3026C20.274 22.0384 19.8729 21.8925 19.4581 21.8895C18.9934 21.8895 18.5291 22.096 18.2709 22.4573C17.7547 23.1282 17.9097 24.1604 18.6322 24.7798C18.6838 24.7798 18.6838 24.8317 18.7353 24.8317C18.8384 24.8832 18.8903 24.9864 18.9934 25.0379C19.3031 25.2442 19.5613 25.3992 19.8709 25.5542C20.0259 25.6057 20.1806 25.7089 20.3356 25.8123C21.2644 26.3798 22.0388 26.8445 22.6581 27.4123C22.9163 27.6701 22.9163 27.9282 22.9163 28.1864V28.2895L23.4322 28.7542C23.3291 28.9089 23.2259 29.0123 23.1741 29.167C20.5934 33.2445 19.6128 38.0445 20.2838 42.7929L19.6128 42.9992C19.6128 43.051 19.5613 43.051 19.5613 43.1023C19.4581 43.3088 19.3031 43.5154 18.9934 43.6701C18.2194 43.9282 17.2903 44.0317 16.2066 44.1348H16.1547C16 44.1348 15.7934 44.1348 15.6388 44.1864C15.3291 44.1864 15.0194 44.2379 14.6581 44.2895C14.555 44.2895 14.4519 44.3413 14.3484 44.3413C14.2969 44.3413 14.2453 44.3413 14.1934 44.3929C13.2644 44.5992 12.6966 45.4767 12.8516 46.3023C13.0066 47.0251 13.6775 47.4898 14.5031 47.4898C14.6581 47.4898 14.7613 47.4898 14.9163 47.4379C14.9678 47.4379 15.0194 47.4379 15.0194 47.3863C15.1225 47.3863 15.2256 47.3348 15.3288 47.3348C15.6903 47.2317 15.9484 47.1285 16.2581 46.9735C16.4128 46.922 16.5675 46.8185 16.7225 46.7673H16.7741C17.7547 46.4057 18.6322 46.096 19.4581 45.9929H19.5613C19.8709 45.9929 20.0775 46.1476 20.2322 46.251C20.2838 46.251 20.2838 46.3026 20.3353 46.3026L21.0581 46.1995C22.2969 50.0185 24.6709 53.4251 27.8194 55.9026C28.5419 56.4701 29.2644 56.9348 30.0388 57.3995L29.7291 58.0701C29.7291 58.122 29.7806 58.122 29.7806 58.1732C29.8837 58.3798 29.9869 58.6379 29.8838 58.9992C29.5744 59.7735 29.1097 60.5476 28.5419 61.4251V61.4767C28.4388 61.6317 28.3356 61.7348 28.2325 61.8895C28.0259 62.1476 27.8709 62.4057 27.6644 62.7154C27.6128 62.767 27.5613 62.8701 27.5097 62.9735C27.5097 63.0251 27.4581 63.0767 27.4581 63.0767C27.0453 63.9542 27.355 64.9348 28.1291 65.296C28.3353 65.3992 28.5419 65.451 28.7484 65.451C29.3678 65.451 29.9872 65.0379 30.2969 64.4701C30.2969 64.4185 30.3484 64.367 30.3484 64.367C30.4 64.2638 30.4516 64.1607 30.5031 64.1089C30.6581 63.7476 30.7097 63.4895 30.8128 63.1798L30.9678 62.7154C31.3291 61.6832 31.5872 60.8573 32.0516 60.1348C32.2578 59.8251 32.5162 59.7735 32.7225 59.6701C32.7741 59.6701 32.7741 59.6701 32.8256 59.6185L33.1872 58.9476C35.4581 59.8251 37.9356 60.2895 40.4128 60.2895C41.9097 60.2895 43.4581 60.1348 44.9034 59.7735C45.8129 59.5702 46.7092 59.3116 47.5872 58.9992L47.8966 59.567C47.9484 59.567 47.9484 59.567 48 59.6185C48.2581 59.6701 48.4644 59.7735 48.6709 60.0832C49.0837 60.8057 49.3934 61.6832 49.7547 62.6638V62.7154L49.9097 63.1798C50.0128 63.4895 50.0644 63.7992 50.2191 64.1089C50.2709 64.212 50.3225 64.2638 50.3741 64.367C50.3741 64.4185 50.4259 64.4701 50.4259 64.4701C50.7353 65.0895 51.3547 65.451 51.9741 65.451C52.1806 65.451 52.3872 65.3992 52.5934 65.296C52.9547 65.0898 53.2644 64.7798 53.3678 64.367C53.4709 63.9542 53.4709 63.4895 53.2647 63.0767C53.2647 63.0251 53.2128 63.0251 53.2128 62.9735C53.1612 62.8704 53.1097 62.7673 53.0581 62.7154C52.9031 62.4057 52.6969 62.1476 52.4903 61.8895C52.3872 61.7348 52.2841 61.6317 52.1809 61.477V61.4251C51.6128 60.5476 51.0966 59.7735 50.8388 58.9992C50.7356 58.6379 50.8387 58.4317 50.8903 58.1735C50.8903 58.122 50.9419 58.122 50.9419 58.0704L50.6838 57.451C53.4194 55.851 55.7419 53.5798 57.4969 50.7929C58.4259 49.3476 59.1484 47.7476 59.6644 46.1476L60.2837 46.2507C60.3356 46.2507 60.3356 46.1992 60.3869 46.1992C60.5934 46.096 60.7484 45.9414 61.0581 45.9414H61.1612C61.9872 46.0445 62.8644 46.3538 63.8453 46.7154H63.8969C64.0516 46.767 64.2062 46.8701 64.3612 46.9217C64.6709 47.0767 64.9291 47.1798 65.2903 47.2832C65.3934 47.2832 65.4966 47.3348 65.6 47.3348C65.6516 47.3348 65.7031 47.3348 65.7547 47.3863C65.9097 47.4379 66.0128 47.4379 66.1678 47.4379C66.9419 47.4379 67.6128 46.922 67.8194 46.251C67.8194 45.6317 67.2516 44.8057 66.3225 44.5479V44.5476ZM42.4256 42.0185L40.1547 43.1026L37.8837 42.0185L37.3163 39.5929L38.8644 37.6317H41.3934L42.9419 39.5929L42.4259 42.0185H42.4256ZM55.8969 36.651C56.2972 38.3577 56.4192 40.1179 56.2581 41.8635L48.3612 39.5929C47.6387 39.3867 47.2259 38.6638 47.3806 37.9413C47.4322 37.7348 47.5356 37.5282 47.6903 37.3735L53.9356 31.7476C54.8128 33.1929 55.4837 34.8445 55.8969 36.6507V36.651ZM51.4581 28.651L44.6969 33.451C44.1291 33.8123 43.3547 33.7088 42.8903 33.1413C42.7356 32.9863 42.6841 32.7798 42.6322 32.5735L42.1678 24.1604C45.6829 24.5652 48.9573 26.148 51.4581 28.651V28.651ZM36.4903 24.4182C37.0581 24.3151 37.5741 24.212 38.1419 24.1089L37.6775 32.3667C37.6259 33.0892 37.0581 33.7085 36.2838 33.7085C36.0775 33.7085 35.8194 33.657 35.6644 33.5538L28.8 28.651C30.9163 26.5348 33.5484 25.0895 36.4903 24.4185V24.4182ZM26.3225 31.7473L32.4644 37.2182C33.0322 37.6829 33.0838 38.5601 32.6194 39.1279C32.4644 39.3342 32.2581 39.4892 32 39.541L24 41.8635C23.6903 38.3539 24.4644 34.7926 26.3225 31.7473V31.7473ZM24.9288 45.7345L33.1356 44.3407C33.8066 44.2892 34.4259 44.7539 34.5806 45.4248C34.6322 45.7342 34.6322 45.9926 34.5291 46.2507L31.3806 53.8376C28.4903 51.9795 26.1678 49.1407 24.9291 45.7345H24.9288ZM43.7678 56.0054C42.5806 56.2635 41.3934 56.4182 40.1547 56.4182C38.3484 56.4182 36.5934 56.1088 34.9422 55.5926L39.0194 48.212C39.4322 47.7473 40.1031 47.541 40.6709 47.8507C40.9119 47.9984 41.1222 48.191 41.2903 48.4182L45.2644 55.5926C44.8 55.7473 44.2838 55.8507 43.7675 56.0054H43.7678ZM53.8322 48.8314C52.5419 50.8957 50.8384 52.5473 48.8775 53.8376L45.6259 46.0439C45.4709 45.4248 45.7291 44.7538 46.3484 44.4438C46.5547 44.3407 46.8128 44.2892 47.0709 44.2892L55.3291 45.6829C55.0194 46.8182 54.5031 47.8507 53.8322 48.8314V48.8314Z" fill="#101120"/>
</g>
<defs>
<clipPath id="clip0">
<rect width="80" height="77.824" fill="white"/>
</clipPath>
</defs>
</svg>
