<svg width="80" height="80" viewBox="0 0 80 80" fill="none" xmlns="http://www.w3.org/2000/svg">
<path fill-rule="evenodd" clip-rule="evenodd" d="M0 0H80V80H0V0Z" fill="#101120"/>
<path fill-rule="evenodd" clip-rule="evenodd" d="M74.8678 47.033C71.6223 62.151 58.137 73.5441 42.0719 73.5441C23.5968 73.5441 8.52861 58.4755 8.52861 40.0003C8.52861 21.5256 23.5968 6.45698 42.0719 6.45698C58.0337 6.45698 71.45 17.7048 74.8051 32.6791C71.4185 16.7734 57.2435 4.77942 40.3533 4.77942C20.9547 4.77942 5.13281 20.6013 5.13281 39.9999C5.13281 59.3989 20.9547 75.2204 40.3533 75.2204C57.3456 75.2204 71.592 63.0815 74.8678 47.033Z" fill="#5E5F85"/>
<path fill-rule="evenodd" clip-rule="evenodd" d="M36.4347 57.5128C38.3754 57.3128 38.6315 55.2592 37.7171 54.3619C36.9643 53.6235 32.8094 50.539 31.7253 49.3263C31.2223 48.7639 30.54 48.4875 30.2511 47.855C29.5867 46.3999 29.121 44.323 29.9639 42.8322C30.1167 42.5625 30.2146 42.6832 30.098 43.2448C29.436 46.4264 31.5078 49.0262 31.964 47.6927C32.279 46.7717 31.9872 45.1245 32.1553 43.8163C32.4533 41.5012 34.5608 37.0554 35.4863 36.8014C34.059 34.1568 37.1606 32.087 37.1228 29.7662C37.0975 28.2567 38.448 31.6218 39.8056 32.3352C41.3213 33.1317 42.9872 30.8336 45.3525 29.6674C46.0211 29.3374 46.8798 28.9585 46.8221 28.6771C46.5441 27.32 43.716 30.3514 41.1893 30.4535C40.0363 30.4995 39.6084 30.2268 39.1631 29.7969C37.8168 28.4953 39.3005 29.5815 41.3018 29.2196C42.192 29.0585 42.4909 28.9099 43.4346 28.5285C44.3788 28.1471 45.4579 27.5823 46.5262 27.2921C47.2695 27.09 47.2081 26.5314 46.9184 26.3633C46.7516 26.2666 46.505 26.2761 46.3096 26.614C45.851 27.4067 43.6953 27.8649 43.0233 28.0703C42.1592 28.3343 41.2034 28.5812 39.9347 28.5298C38.0064 28.4517 38.4559 27.5677 37.0763 26.7767C36.6717 26.5447 36.7812 25.9358 37.3183 25.3983C37.5997 25.1165 38.3717 24.9576 38.7543 24.3168C38.8079 24.2267 39.3009 23.7112 39.6877 23.444C39.8214 23.3514 39.833 20.9969 38.6248 20.9484C37.5984 20.9069 37.3067 21.7025 37.3498 22.4956C37.3926 23.2879 37.8126 23.9416 38.0923 23.9387C38.631 23.9329 38.1268 24.528 37.8317 24.6239C37.3835 24.77 36.7692 22.8596 36.8398 21.9424C36.9136 20.987 37.4109 19.2953 38.6203 19.3281C39.7093 19.3575 40.4983 20.7226 40.4584 23.0775C40.451 23.4767 42.224 22.887 42.8158 23.512C43.2383 23.959 41.3665 19.3401 45.5355 19.0222C46.6337 19.2322 47.6887 19.5978 48.127 22.1229C47.9647 22.3856 48.4001 24.147 47.7223 24.3562C46.8948 24.6114 46.3839 24.3193 46.8624 23.5315C47.1898 22.7401 46.8699 20.7271 45.1956 20.8479C43.521 20.9687 43.743 23.9399 44.2016 23.9989C44.6611 24.0574 45.8173 24.8779 46.6246 25.0352C49.2729 25.5507 47.3272 27.0693 47.6709 28.9075C48.0593 30.9835 49.4265 30.4352 50.6554 35.9327C50.9123 36.2677 51.9295 36.5843 52.9219 40.8081C53.8142 44.6073 52.5504 47.3706 54.6961 47.144C55.1792 47.093 55.8852 46.9577 56.1923 45.8811C56.9958 43.0676 55.7902 39.7137 54.5737 37.4509C53.8652 36.1315 53.1974 35.2334 52.8455 34.9246C54.2396 35.7489 56.0222 38.381 56.4335 40.3358C56.9742 42.9032 57.359 43.9893 56.5422 46.7041C57.0141 46.9398 58.1878 47.4387 58.1878 47.9986C56.9655 46.9934 53.2219 46.8149 53.1256 49.2184C52.4869 49.2312 52.0046 49.2831 51.5938 49.7712C50.0884 51.5571 51.4858 55.1438 51.3335 57.0666C51.1991 58.7591 50.7297 60.4363 50.4645 62.1363C49.5688 62.1022 49.6564 61.4465 49.944 60.5264C50.1976 59.715 50.6064 58.6977 50.633 57.7224C50.6574 56.8396 50.5607 56.2885 50.3387 56.1515C50.1158 56.0145 49.7672 56.2918 49.2858 57.0675C48.2577 58.7226 46.0311 59.4506 43.9518 59.7116C41.8725 59.9719 39.9396 59.7652 38.9162 58.6189C38.5663 58.2267 37.9861 58.7259 37.9172 58.8297C37.8246 58.9691 38.2559 59.2398 38.5808 59.8366C39.0556 60.7073 39.5068 62.0284 38.3824 62.6314C38.397 59.566 37.4266 59.3863 36.4347 57.5128ZM35.6918 57.4319C36.4368 58.6047 39.0623 63.5432 34.46 64.1845C32.9206 64.3986 30.4425 63.2888 28.0411 62.7011C25.8837 62.1736 23.6928 61.8615 22.4664 61.5162C21.728 61.3095 21.4196 61.0443 21.3553 60.7347C21.1852 59.915 22.2518 58.7658 22.3057 57.7954C22.3597 56.8251 21.9517 56.32 21.6176 55.5289C21.2827 54.7346 21.1959 54.1402 21.4636 53.7999C21.672 53.5355 22.0953 53.4247 22.7843 53.492C23.6575 53.5787 24.7117 53.3994 25.2782 53.0541C26.2324 52.4714 26.681 51.279 26.2519 49.8417C26.2519 51.2483 25.7908 51.7808 24.6349 52.4237C23.5454 53.03 21.8637 52.5395 21.0909 53.2106C20.1609 54.017 21.423 56.1013 21.3196 57.6298C21.2404 58.8052 20.0139 60.1287 20.5609 61.3074C21.1113 62.4932 23.677 62.6231 26.3519 63.1817C30.1544 63.9778 32.3711 65.3623 34.1279 65.4271C36.6908 65.5225 37.0834 62.8916 41.1075 62.8559C42.2813 62.7945 43.4292 62.758 44.576 62.7435C45.8754 62.7273 47.1732 62.7377 48.5059 62.77C51.1841 62.8348 50.2632 64.2322 52.0005 65.1249C53.4668 65.8778 56.1023 65.5806 56.7327 64.9788C57.5864 64.165 59.877 62.2072 61.6321 61.3228C63.8198 60.2205 68.9575 58.3225 65.228 56.0083C64.3589 55.4683 62.3033 54.8985 62.1306 50.9532C61.3524 51.6446 61.4425 55.3206 63.6139 56.0502C66.0394 56.8649 67.5551 58.2291 63.0458 59.7718C60.0596 60.7924 59.5528 61.107 57.1892 63.0742C54.797 65.0652 51.2485 64.2749 51.8677 60.0831C52.191 57.8992 52.3769 56.095 51.8336 54.1963C51.5676 53.2699 51.4356 52.0796 51.6174 51.2458C51.9702 49.6238 52.848 49.1358 53.7088 50.693C54.2487 51.6704 54.4384 52.8125 56.3724 52.9059C59.4105 53.0512 60.0123 49.97 60.983 49.8297C61.6309 49.7363 62.2784 47.9027 61.7849 44.9377C61.2565 41.7635 59.3889 36.7503 56.9933 34.2083C55.0024 32.0957 53.7478 30.243 52.958 27.5993C52.2947 25.378 51.9254 23.2161 52.0615 21.1492C52.2383 18.471 50.7533 14.744 48.3885 12.9909C46.9085 11.8932 44.5876 11.3051 42.4871 11.3283C41.3084 11.3412 40.1999 11.513 39.3474 11.9758C35.8408 13.8795 35.351 16.5988 35.4038 19.7024C35.4531 22.6176 35.5523 25.9445 35.8835 29.1096C35.4913 30.5626 33.4498 33.3176 32.1424 34.9939C30.3848 36.7304 29.497 40.086 28.3598 43.0178C27.753 44.5808 26.7312 45.2867 26.6453 47.2963C26.6213 47.8587 26.6408 49.3122 27.1778 48.8963C29.2331 47.3063 31.8058 51.3151 35.6918 57.4319ZM46.3614 15.4089C46.251 15.7401 45.7949 16.0161 46.0842 16.2481C46.3735 16.4801 46.5399 15.924 47.1226 15.7156C47.2733 15.6617 47.9738 15.738 48.1025 15.4052C48.1585 15.2599 47.741 15.0943 47.4928 14.8565C47.2438 14.6191 46.9998 14.4078 46.7665 14.4228C46.1631 14.4614 46.4594 15.1155 46.3614 15.4089ZM49.9336 27.498C50.1507 27.2701 50.2628 27.8915 50.8463 28.2596C51.309 28.5518 51.7589 28.3351 51.8756 28.9265C51.959 29.3507 51.6946 29.8106 51.3389 29.7508C50.7209 29.6466 49.2928 28.172 49.9336 27.498ZM40.2924 23.7673C39.3308 23.6955 39.2648 24.3906 39.5831 24.379C39.9081 24.3674 39.7085 23.8291 40.2924 23.7673ZM38.6431 21.9918C38.7568 21.9669 38.9183 22.1607 38.868 22.4321C38.7983 22.809 38.8286 23.0451 39.0897 23.0459C39.1328 23.0459 39.1793 23.0376 39.1955 22.9401C39.3208 22.1893 38.9307 21.6381 38.7713 21.5975C38.404 21.5037 38.4484 22.0333 38.6431 21.9918ZM45.6418 21.6743C45.8858 21.7469 46.1207 22.169 46.1718 22.6251C46.1768 22.6678 46.4905 22.5595 46.4926 22.4599C46.5129 21.7257 45.8854 21.3804 45.7219 21.3953C45.3442 21.4294 45.4513 21.617 45.6418 21.6743ZM42.0538 23.8569C42.9283 23.4514 43.2342 24.0794 42.9324 24.1802C42.6245 24.2836 42.622 23.7092 42.0538 23.8569ZM31.4946 38.7533C31.0812 38.7031 31.6149 38.3926 31.8411 38.0021C32.0897 37.5721 32.0416 37.0355 32.303 37.1147C32.5641 37.194 32.4188 37.4945 32.24 37.9871C32.0872 38.4067 31.6469 38.7716 31.4946 38.7533Z" fill="#5E5F85"/>
</svg>
