<svg width="48" height="44" viewBox="0 0 48 44" fill="none" xmlns="http://www.w3.org/2000/svg">
<rect x="1" y="1" width="46" height="34" stroke="#5E5F85" stroke-width="2"/>
<path d="M39.5 19L42.5 21.5L43 22.8L41 24.5L44 27L47 29.5V33L35.8571 43L32.1429 39.8297L21 30.3188V26.3333L29.1714 20.5362L32.8857 23.5556L39.5 19Z" fill="#101120"/>
<path d="M42.5 21.5L39.5 19L32.8857 23.5556M42.5 21.5L43 22.8L41 24.5M42.5 21.5L40 23.5556L41 24.5M41 24.5L44 27M47 29.5V33L35.8571 43M47 29.5L44 27M47 29.5L36.3571 38.971M35.8571 43L32.1429 39.8297M35.8571 43L36.3571 38.971M21 26.3333V30.3188L32.1429 39.8297M21 26.3333L29.1714 20.5362L32.8857 23.5556M21 26.3333L32.5 36M32.8857 23.5556L29 26.5L32.1429 29.2319M32.1429 29.2319L35.8571 26.3333L40 30L44 27M32.1429 29.2319L36 33L32.5 36M32.5 36L32.1429 39.8297M32.5 36L36.3571 38.971" stroke="#5E5F85" stroke-width="0.4"/>
<path d="M6.5 7L11 10.5L6.5 13.5" stroke="#5E5F85" stroke-width="1.5"/>
<path d="M13 14H16" stroke="#5E5F85"/>
</svg>
