<svg width="80" height="81" viewBox="0 0 80 81" fill="none" xmlns="http://www.w3.org/2000/svg">
<path d="M44.8401 2.23213C23.942 -0.458199 4.82148 14.3146 2.15517 35.2127C-0.511141 56.1108 14.2376 75.2313 35.1357 77.8976C56.0338 80.588 75.1544 65.8152 77.8207 44.9171C77.8207 44.8931 77.8207 44.869 77.8207 44.869C80.487 23.971 65.7142 4.89844 44.8401 2.23213Z" fill="#101120"/>
<path d="M62.8795 20.1036C62.6633 20.1997 62.5432 20.4639 62.6393 20.6801C62.6393 20.7041 62.6633 20.7041 62.6633 20.7281C62.9036 21.2085 62.8555 21.8091 62.4952 22.2174C62.3271 22.3856 62.303 22.6738 62.4712 22.842C62.4712 22.842 62.4712 22.842 62.4952 22.866C62.5913 22.89 62.7114 22.89 62.8075 22.866C62.9276 22.866 63.0717 22.7939 63.1438 22.6978C63.7443 22.0012 63.8644 21.0164 63.432 20.1997C63.3119 20.0315 63.0717 19.9835 62.8795 20.1036Z" fill="#5E5F85"/>
<path d="M45.0804 0.334494C23.1734 -2.49996 3.14009 12.9935 0.329659 34.9004C-2.48077 56.8074 12.9886 76.8648 34.8956 79.6752C56.8026 82.4856 76.8359 67.0162 79.6704 45.1093C82.4808 23.2023 67.0114 3.14493 45.0804 0.334494C45.1044 0.334494 45.1044 0.334494 45.0804 0.334494ZM53.3195 25.2681C52.5749 25.2921 51.8783 25.5804 51.3498 26.1088L36.505 40.9537L33.3342 37.7829C47.9389 23.2023 50.6052 23.0582 53.3195 25.2681ZM37.1055 41.4821L51.9023 26.7814C52.719 25.9887 54.0161 25.9887 54.8328 26.7814C55.2412 27.1897 55.4574 27.7422 55.4334 28.2947C55.4093 28.8712 55.1691 29.3997 54.7368 29.784L39.0992 43.5719L37.1055 41.4821ZM38.2105 43.7161L34.5353 44.6529C34.4632 44.7009 34.3911 44.7009 34.3191 44.6529C34.271 44.5808 34.271 44.4847 34.3191 44.4127L36.553 42.1787L38.2105 43.7161ZM28.8423 42.1787L32.7577 38.2633L35.7123 41.29L29.0105 42.7312C28.8664 42.7552 28.7222 42.6591 28.6982 42.515C28.6742 42.4189 28.6982 42.3469 28.7703 42.2748L28.8423 42.1787ZM16.7118 62.5243C16.6158 62.5003 16.5197 62.4283 16.4957 62.3562C16.4716 62.2601 16.4716 62.164 16.4957 62.092L19.6424 58.9212L23.7259 62.9807L16.7118 62.5243ZM24.7828 58.3207C24.4706 58.4888 24.3024 58.8251 24.3745 59.1614L25.0471 62.0439C25.0951 62.2361 24.999 62.4283 24.8549 62.5243C24.7108 62.6444 24.4946 62.6444 24.3745 62.5243L20.2909 58.3207L32.8298 45.7578L38.9071 44.4607L41.8136 47.3672C36.6251 51.691 30.9081 55.3661 24.8069 58.2727V58.3207H24.7828V58.3207ZM42.4141 46.8868L39.6277 44.1004L55.2652 30.3365C55.4093 30.2164 55.5535 30.0722 55.6736 29.9041C55.1691 34.372 48.8757 40.7135 42.4141 46.8868ZM54.6167 25.3401C52.2866 22.914 52.3827 19.0707 54.8088 16.7407C57.0187 14.6269 60.4297 14.4827 62.8078 16.4044L57.4271 21.761C57.283 21.9292 57.283 22.1694 57.4271 22.3375L61.6067 26.4931C59.2527 27.6461 56.4182 27.1657 54.5926 25.2921L54.6167 25.3401ZM63.1921 25.3401C62.9038 25.6044 62.6156 25.8686 62.2793 26.0848L58.2678 22.0733L63.3842 16.9569C65.5942 19.3349 65.5221 23.0341 63.1921 25.3401Z" fill="#5E5F85"/>
</svg>
