<svg width="80" height="80" viewBox="0 0 80 80" fill="none" xmlns="http://www.w3.org/2000/svg">
<g clip-path="url(#clip0)">
<path d="M39.6571 0.0224609C19.399 0.0224609 20.6639 8.80757 20.6639 8.80757L20.6864 17.9092H40.0183V20.6418H13.0081C13.0081 20.6418 0.0449219 19.1716 0.0449219 39.6119C0.0449219 60.0527 11.3595 59.3278 11.3595 59.3278H18.112V49.8425C18.112 49.8425 17.7479 38.5279 29.2459 38.5279H48.4197C48.4197 38.5279 59.1922 38.7019 59.1922 28.1167V10.6146C59.1922 10.6146 60.8283 0.0224609 39.6571 0.0224609ZM28.9975 6.14313C29.4543 6.14272 29.9068 6.2324 30.3289 6.40703C30.751 6.58166 31.1346 6.83782 31.4576 7.16084C31.7806 7.48387 32.0368 7.86742 32.2114 8.28955C32.386 8.71168 32.4757 9.16411 32.4753 9.62093C32.4757 10.0778 32.386 10.5302 32.2114 10.9523C32.0368 11.3744 31.7806 11.758 31.4576 12.081C31.1346 12.404 30.751 12.6602 30.3289 12.8348C29.9068 13.0095 29.4543 13.0991 28.9975 13.0987C28.5407 13.0991 28.0883 13.0095 27.6661 12.8348C27.244 12.6602 26.8604 12.404 26.5374 12.081C26.2144 11.758 25.9582 11.3744 25.7836 10.9523C25.609 10.5302 25.5193 10.0778 25.5197 9.62093C25.5193 9.16411 25.609 8.71168 25.7836 8.28955C25.9582 7.86742 26.2144 7.48387 26.5374 7.16084C26.8604 6.83782 27.244 6.58166 27.6661 6.40703C28.0883 6.2324 28.5407 6.14272 28.9975 6.14313Z" fill="#5E5F85"/>
<path d="M40.2326 79.4069C60.4907 79.4069 59.2258 70.6218 59.2258 70.6218L59.2033 61.5204H39.8711V58.7879H66.8814C66.8814 58.7879 79.8445 60.2581 79.8445 39.8171C79.8445 19.3765 68.53 20.1014 68.53 20.1014H61.7775V29.5865C61.7775 29.5865 62.1415 40.9011 50.6435 40.9011H31.4697C31.4697 40.9011 20.6973 40.727 20.6973 51.3126V68.8151C20.6973 68.8151 19.0615 79.4069 40.2323 79.4069H40.2326ZM50.8922 73.2869C50.4354 73.2873 49.983 73.1976 49.5609 73.023C49.1387 72.8483 48.7552 72.5922 48.4322 72.2691C48.1091 71.9461 47.853 71.5626 47.6783 71.1404C47.5037 70.7183 47.414 70.2659 47.4144 69.8091C47.414 69.3522 47.5036 68.8997 47.6783 68.4776C47.8529 68.0554 48.109 67.6718 48.432 67.3488C48.7551 67.0257 49.1386 66.7695 49.5608 66.5949C49.9829 66.4202 50.4354 66.3305 50.8922 66.3309C51.3491 66.3305 51.8015 66.4202 52.2236 66.5948C52.6458 66.7695 53.0293 67.0256 53.3523 67.3486C53.6754 67.6717 53.9315 68.0552 54.1062 68.4774C54.2808 68.8995 54.3705 69.3519 54.37 69.8087C54.3705 70.2656 54.2808 70.718 54.1062 71.1401C53.9315 71.5623 53.6754 71.9458 53.3523 72.2688C53.0293 72.5919 52.6458 72.848 52.2236 73.0226C51.8015 73.1973 51.3491 73.287 50.8922 73.2865V73.2869Z" fill="#5E5F85"/>
</g>
<defs>
<clipPath id="clip0">
<rect width="80" height="79.68" fill="white"/>
</clipPath>
</defs>
</svg>
