<svg width="80" height="29" viewBox="0 0 80 29" fill="none" xmlns="http://www.w3.org/2000/svg">
<g clip-path="url(#clip0)">
<path d="M69.6329 24.4705V28.128H76.2406C77.5945 28.128 79.9183 27.1379 79.9991 24.3695V22.955C79.9991 20.5908 78.0592 19.1965 76.2406 19.1965H72.9469V17.4992H79.4737V13.8215H73.2096C71.593 13.8215 69.4309 15.1552 69.4309 17.6406V18.9136C69.4309 21.3991 71.5728 22.6721 73.2096 22.6721C77.7561 22.6923 72.1184 22.6721 76.3214 22.6721V24.4503L69.6329 24.4705ZM34.2304 23.5814C34.2304 23.5814 37.7666 23.2783 37.7666 18.7116C37.7666 14.1448 33.4827 13.7205 33.4827 13.7205H25.7637V28.128H29.6434V24.6524L32.9978 28.128H38.7365L34.2304 23.5814V23.5814ZM32.7351 20.6312H29.6434V17.3375H32.7553C32.7553 17.3375 33.6242 17.6608 33.6242 18.9743C33.6242 20.2877 32.7351 20.6312 32.7351 20.6312V20.6312ZM47.3447 13.8215H43.4043C40.5956 13.8215 39.6458 16.3676 39.6458 17.58V28.128H43.5862V25.6021H47.2841V28.128H51.1032V17.58C51.1032 14.5085 48.3146 13.8215 47.3447 13.8215V13.8215ZM47.2841 21.5203H43.566V18.0245C43.566 18.0245 43.566 17.2365 44.7986 17.2365H46.1525C47.2436 17.2365 47.2639 18.0245 47.2639 18.0245V21.5203H47.2841V21.5203ZM52.9016 13.8215H57.0036V28.128H52.9016V13.8215ZM62.7626 24.4301V13.8215H58.6808V28.128H68.2791V24.4301H62.7626Z" fill="#5E5F85"/>
<path d="M1.41504 28.1279H17.3784C17.3784 28.1279 14.3272 14.2054 24.4306 8.56767C26.6332 7.4967 33.645 3.49573 45.1224 11.9826C45.4862 11.6795 45.8297 11.437 45.8297 11.437C45.8297 11.437 35.3221 0.949665 23.6224 2.12167C17.7422 2.64704 10.5081 8.00187 6.26468 15.0743C2.02124 22.1467 1.41504 28.1279 1.41504 28.1279Z" fill="#5E5F85"/>
<path d="M1.41504 28.1279H17.3784C17.3784 28.1279 14.3272 14.2054 24.4306 8.56767C26.6332 7.4967 33.645 3.49573 45.1224 11.9826C45.4862 11.6795 45.8297 11.437 45.8297 11.437C45.8297 11.437 35.3221 0.949665 23.6224 2.12167C17.7422 2.64704 10.5081 8.00187 6.26468 15.0743C2.02124 22.1467 1.41504 28.1279 1.41504 28.1279Z" fill="#5E5F85"/>
<path d="M1.41504 28.1281H17.3784C17.3784 28.1281 14.3272 14.2055 24.4306 8.56778C26.6332 7.49681 33.645 3.49585 45.1224 11.9827C45.4862 11.6796 45.8297 11.4372 45.8297 11.4372C45.8297 11.4372 35.3221 0.949778 23.6224 2.12178C17.722 2.64716 10.4879 8.00198 6.24447 15.0744C2.00104 22.1468 1.41504 28.1281 1.41504 28.1281ZM34.6755 3.25336L34.7563 1.8995C34.5745 1.79847 34.0693 1.55598 32.7963 1.19226L32.7154 2.52592C33.3823 2.74819 34.0289 2.99067 34.6755 3.25336Z" fill="#5E5F85"/>
<path d="M32.7564 7.53717L32.6755 8.81021C33.3424 8.83041 34.0092 8.91124 34.676 9.05269L34.7568 7.79986C34.0698 7.65841 33.403 7.57759 32.7564 7.53717ZM25.2798 1.23262H25.4819L25.0777 0C24.4513 0 23.8047 0.0404138 23.1379 0.121241L23.5218 1.31345C24.1078 1.25283 24.6938 1.23262 25.2798 1.23262V1.23262ZM26.2497 8.66876L26.7145 10.063C27.3005 9.78014 27.8865 9.53765 28.4725 9.35579L28.0279 8.02214C27.3409 8.22421 26.7549 8.44648 26.2497 8.66876ZM17.0758 3.35434L16.1665 1.96007C15.6613 2.22276 15.1359 2.50566 14.5904 2.82897L15.5199 4.24345C16.0453 3.92014 16.5504 3.61703 17.0758 3.35434ZM21.2182 12.4474L22.1882 13.9023C22.5317 13.3972 22.9358 12.9324 23.3804 12.4677L22.471 11.0936C22.0063 11.5179 21.5819 11.9827 21.2182 12.4474ZM18.2882 18.9541L19.925 20.2473C20.0058 19.4592 20.1473 18.6712 20.3493 17.8831L18.8944 16.7313C18.6317 17.479 18.4499 18.2266 18.2882 18.9541V18.9541ZM9.4376 9.35579L8.00291 8.10296C7.47753 8.60814 6.97236 9.11331 6.5076 9.61848L8.06353 10.9521C8.48787 10.4066 8.95263 9.86096 9.4376 9.35579ZM3.33511 18.3883L1.01132 17.5396C0.62739 18.4085 0.203046 19.4188 0.000976562 19.9644L2.32477 20.8131C2.58746 20.1261 3.0118 19.1359 3.33511 18.3883ZM17.9851 24.0866C18.0255 25.1576 18.1266 26.0265 18.2276 26.6327L20.6524 27.5016C20.4706 26.7135 20.2887 25.8244 20.1675 24.8747L17.9851 24.0866Z" fill="#5E5F85"/>
</g>
<defs>
<clipPath id="clip0">
<rect width="80" height="28.128" fill="white"/>
</clipPath>
</defs>
</svg>
