<svg width="80" height="92" viewBox="0 0 80 92" fill="none" xmlns="http://www.w3.org/2000/svg">
<path d="M80 45.587C80 40.2874 73.3632 35.2649 63.1879 32.1504C65.5361 21.7794 64.4925 13.5283 59.894 10.8866C58.8341 10.267 57.5948 9.97346 56.2413 9.97346V13.6098C56.9914 13.6098 57.5948 13.7566 58.1003 14.0338C60.318 15.3057 61.2801 20.1488 60.53 26.3779C60.3506 27.9107 60.0571 29.525 59.6983 31.172C56.5022 30.3893 53.0126 29.7859 49.3437 29.3946C47.1423 26.3779 44.8594 23.6384 42.5601 21.2413C47.8761 16.3004 52.8659 13.5935 56.2576 13.5935V9.95715C51.7733 9.95715 45.903 13.1532 39.9674 18.6975C34.0318 13.1859 28.1614 10.0224 23.6771 10.0224V13.6587C27.0526 13.6587 32.0587 16.3493 37.3746 21.2576C35.0917 23.6547 32.8088 26.3779 30.64 29.3946C26.9548 29.7859 23.4651 30.3893 20.2691 31.1883C19.894 29.5576 19.6168 27.9759 19.4211 26.4594C18.6547 20.2303 19.6005 15.3872 21.8019 14.099C22.2911 13.8055 22.927 13.6751 23.6771 13.6751V10.0387C22.3074 10.0387 21.0681 10.3322 19.9918 10.9519C15.4097 13.5935 14.3824 21.8283 16.7468 32.1667C6.60416 35.2976 0 40.3037 0 45.587C0 50.8866 6.63677 55.909 16.8121 59.0236C14.4639 69.3946 15.5075 77.6457 20.106 80.2874C21.1659 80.907 22.4052 81.2005 23.775 81.2005C28.2593 81.2005 34.1296 78.0044 40.0652 72.4602C46.0008 77.9718 51.8712 81.1353 56.3555 81.1353C57.7252 81.1353 58.9645 80.8418 60.0408 80.2221C64.6229 77.5805 65.6502 69.3457 63.2858 59.0073C73.3958 55.8927 80 50.8703 80 45.587ZM58.7689 34.7105C58.1655 36.8141 57.4154 38.9828 56.5675 41.1516C55.8989 39.8471 55.1977 38.5426 54.4313 37.238C53.6812 35.9335 52.8822 34.6616 52.0832 33.4223C54.3987 33.7647 56.6327 34.1887 58.7689 34.7105ZM51.3004 52.077C50.0285 54.2784 48.724 56.3656 47.3706 58.3061C44.9409 58.5181 42.4786 58.6322 40 58.6322C37.5377 58.6322 35.0754 58.5181 32.662 58.3224C31.3086 56.3819 29.9878 54.311 28.7159 52.1259C27.4766 49.9898 26.3514 47.821 25.3241 45.6359C26.3351 43.4508 27.4766 41.2658 28.6996 39.1296C29.9715 36.9282 31.276 34.841 32.6294 32.9005C35.0591 32.6885 37.5214 32.5744 40 32.5744C42.4623 32.5744 44.9246 32.6885 47.338 32.8842C48.6914 34.8247 50.0122 36.8956 51.2841 39.0807C52.5234 41.2168 53.6486 43.3856 54.6759 45.5707C53.6486 47.7558 52.5234 49.9408 51.3004 52.077ZM56.5675 49.9571C57.448 52.1422 58.1981 54.3273 58.8178 56.4472C56.6816 56.969 54.4313 57.4093 52.0995 57.7517C52.8985 56.4961 53.6975 55.2079 54.4476 53.887C55.1977 52.5825 55.8989 51.2617 56.5675 49.9571ZM40.0326 67.3563C38.5161 65.7908 36.9996 64.046 35.4994 62.1382C36.967 62.2034 38.4672 62.2523 39.9837 62.2523C41.5165 62.2523 43.033 62.2197 44.5169 62.1382C43.0493 64.046 41.5328 65.7908 40.0326 67.3563ZM27.9005 57.7517C25.585 57.4093 23.351 56.9853 21.2148 56.4635C21.8182 54.3599 22.5683 52.1912 23.4162 50.0224C24.0848 51.3269 24.786 52.6314 25.5524 53.936C26.3188 55.2405 27.1015 56.5124 27.9005 57.7517ZM39.9511 23.8177C41.4676 25.3832 42.9841 27.128 44.4843 29.0358C43.0167 28.9706 41.5165 28.9217 40 28.9217C38.4672 28.9217 36.9507 28.9543 35.4668 29.0358C36.9344 27.128 38.4509 25.3832 39.9511 23.8177ZM27.8842 33.4223C27.0852 34.6779 26.2862 35.9661 25.5361 37.287C24.786 38.5915 24.0848 39.896 23.4162 41.2005C22.5357 39.0154 21.7856 36.8304 21.1659 34.7105C23.3021 34.205 25.5524 33.7647 27.8842 33.4223ZM13.1268 53.8381C7.35426 51.3758 3.62006 48.1471 3.62006 45.587C3.62006 43.0269 7.35426 39.7819 13.1268 37.3359C14.5292 36.7325 16.062 36.1944 17.6437 35.6889C18.5732 38.885 19.7962 42.2115 21.3127 45.6196C19.8125 49.0114 18.6058 52.3216 17.6926 55.5014C16.0783 54.9959 14.5455 54.4415 13.1268 53.8381ZM21.8997 77.1402C19.682 75.8683 18.7199 71.0252 19.47 64.7961C19.6494 63.2633 19.9429 61.649 20.3017 60.002C23.4978 60.7847 26.9874 61.3881 30.6563 61.7794C32.8577 64.7961 35.1406 67.5356 37.4399 69.9327C32.1239 74.8736 27.1341 77.5805 23.7424 77.5805C23.0086 77.5642 22.3889 77.4174 21.8997 77.1402ZM60.5789 64.7146C61.3453 70.9437 60.3995 75.7868 58.1981 77.075C57.7089 77.3685 57.073 77.4989 56.3229 77.4989C52.9474 77.4989 47.9413 74.8084 42.6254 69.9001C44.9083 67.503 47.1912 64.7798 49.36 61.7631C53.0453 61.3717 56.5349 60.7684 59.7309 59.9694C60.106 61.6163 60.3995 63.1981 60.5789 64.7146ZM66.8569 53.8381C65.4546 54.4415 63.9217 54.9796 62.34 55.4851C61.4105 52.289 60.1875 48.9624 58.671 45.5544C60.1712 42.1626 61.3779 38.8524 62.2911 35.6726C63.9054 36.1781 65.4382 36.7325 66.8732 37.3359C72.6457 39.7982 76.3799 43.0269 76.3799 45.587C76.3636 48.1471 72.6294 51.3921 66.8569 53.8381Z" fill="#5E5F85"/>
<path d="M39.9843 53.0391C44.1 53.0391 47.4364 49.7027 47.4364 45.587C47.4364 41.4713 44.1 38.1349 39.9843 38.1349C35.8686 38.1349 32.5322 41.4713 32.5322 45.587C32.5322 49.7027 35.8686 53.0391 39.9843 53.0391Z" fill="#5E5F85"/>
</svg>
