<?xml version="1.0" encoding="UTF-8"?>
<svg xmlns="http://www.w3.org/2000/svg" xmlns:xlink="http://www.w3.org/1999/xlink" viewBox="0 0 30 30" width="30px" height="30px">
<g id="surface38465376">
<path style=" stroke:none;fill-rule:nonzero;fill:rgb(36.862746%,37.254903%,52.156866%);fill-opacity:1;" d="M 28.285156 7.988281 L 27.28125 27.285156 L 8.460938 28.289062 Z M 28.285156 7.988281 "/>
<path style=" stroke:none;fill-rule:nonzero;fill:rgb(6.27451%,6.666667%,12.54902%);fill-opacity:1;" d="M 28.074219 8.472656 L 27.105469 27.105469 L 8.929688 28.074219 L 28.074219 8.472656 M 28.5 7.5 L 7.992188 28.5 L 27.460938 27.460938 Z M 28.5 7.5 "/>
<path style=" stroke:none;fill-rule:nonzero;fill:rgb(36.862746%,37.254903%,52.156866%);fill-opacity:1;" d="M 27.09375 27.203125 L 18.082031 18.160156 L 28.289062 8.199219 L 27.285156 27.238281 Z M 27.09375 27.203125 "/>
<path style=" stroke:none;fill-rule:nonzero;fill:rgb(6.27451%,6.666667%,12.54902%);fill-opacity:1;" d="M 28.074219 8.667969 L 27.113281 26.957031 L 18.351562 18.164062 L 28.074219 8.667969 M 28.5 7.730469 L 17.816406 18.160156 L 27 27.375 L 27.460938 27.460938 Z M 28.5 7.730469 "/>
<path style=" stroke:none;fill-rule:nonzero;fill:rgb(36.862746%,37.254903%,52.156866%);fill-opacity:1;" d="M 7.160156 28.3125 C 5.453125 28.3125 4.097656 27.824219 3.136719 26.863281 C -0.199219 23.527344 2.40625 15.488281 8.945312 8.945312 C 13.425781 4.46875 18.746094 1.6875 22.839844 1.6875 C 24.546875 1.6875 25.902344 2.175781 26.863281 3.136719 C 30.199219 6.472656 27.59375 14.511719 21.054688 21.054688 C 16.574219 25.53125 11.253906 28.3125 7.160156 28.3125 Z M 7.160156 28.3125 "/>
<path style=" stroke:none;fill-rule:nonzero;fill:rgb(6.27451%,6.666667%,12.54902%);fill-opacity:1;" d="M 22.839844 1.5 L 22.839844 1.875 C 24.496094 1.875 25.804688 2.34375 26.730469 3.269531 C 29.996094 6.535156 27.390625 14.453125 20.921875 20.921875 C 16.476562 25.363281 11.203125 28.125 7.160156 28.125 C 5.503906 28.125 4.195312 27.65625 3.269531 26.730469 C 0.00390625 23.464844 2.609375 15.546875 9.078125 9.078125 C 13.523438 4.636719 18.796875 1.875 22.839844 1.875 L 22.839844 1.5 M 22.839844 1.5 C 18.851562 1.5 13.460938 4.167969 8.8125 8.8125 C 2.1875 15.441406 -0.414062 23.578125 3.003906 26.996094 C 4.023438 28.015625 5.464844 28.5 7.160156 28.5 C 11.148438 28.5 16.539062 25.832031 21.1875 21.1875 C 27.8125 14.558594 30.414062 6.421875 26.996094 3.003906 C 25.976562 1.984375 24.535156 1.5 22.839844 1.5 Z M 22.839844 1.5 "/>
<path style=" stroke:none;fill-rule:nonzero;fill:rgb(36.862746%,37.254903%,52.156866%);fill-opacity:1;" d="M 4.558594 18.320312 L 1.6875 22.632812 L 1.6875 15.050781 L 4.648438 9.863281 L 9.859375 4.652344 L 15.792969 1.6875 L 22.847656 1.6875 L 19.910156 4.570312 L 27.589844 7.496094 L 17.769531 11.136719 L 20.707031 20.6875 L 11.136719 17.003906 L 7.507812 27.53125 Z M 4.558594 18.320312 "/>
<path style=" stroke:none;fill-rule:nonzero;fill:rgb(6.27451%,6.666667%,12.54902%);fill-opacity:1;" d="M 22.390625 1.875 L 19.988281 4.230469 L 19.570312 4.640625 L 20.117188 4.851562 L 27.058594 7.496094 L 17.871094 10.898438 L 17.539062 11.019531 L 17.640625 11.359375 L 20.414062 20.371094 L 11.382812 16.898438 L 11.023438 16.761719 L 10.894531 17.128906 L 7.511719 26.9375 L 4.855469 18.636719 L 4.621094 17.894531 L 4.1875 18.542969 L 1.875 22.011719 L 1.875 15.101562 L 4.800781 9.980469 L 9.972656 4.808594 L 15.839844 1.875 L 22.390625 1.875 M 23.308594 1.5 L 15.75 1.5 L 9.75 4.5 L 4.5 9.75 L 1.5 15 L 1.5 23.25 L 4.5 18.75 L 7.5 28.125 L 11.25 17.25 L 21 21 L 18 11.25 L 28.125 7.5 L 20.25 4.5 Z M 23.308594 1.5 "/>
<path style=" stroke:none;fill-rule:nonzero;fill:rgb(36.862746%,37.254903%,52.156866%);fill-opacity:1;" d="M 1.726562 14.980469 L 4.648438 9.863281 L 9.859375 4.652344 L 15.738281 1.714844 L 20.027344 4.578125 L 17.839844 11.144531 L 11.160156 17.078125 L 4.574219 18.542969 Z M 1.726562 14.980469 "/>
<path style=" stroke:none;fill-rule:nonzero;fill:rgb(6.27451%,6.666667%,12.54902%);fill-opacity:1;" d="M 15.722656 1.933594 L 19.804688 4.652344 L 17.675781 11.035156 L 11.074219 16.90625 L 4.648438 18.332031 L 1.953125 14.964844 L 4.800781 9.980469 L 9.972656 4.808594 L 15.722656 1.933594 M 15.75 1.5 L 9.75 4.5 L 4.5 9.75 L 1.5 15 L 4.5 18.75 L 11.25 17.25 L 18 11.25 L 20.25 4.5 Z M 15.75 1.5 "/>
</g>
</svg>
