<svg width="80" height="81" viewBox="0 0 80 81" fill="none" xmlns="http://www.w3.org/2000/svg">
<g clip-path="url(#clip0)">
<path d="M72.7585 4.17337C71.6332 6.86157 70.2058 9.41432 68.4866 11.7587C60.9638 4.23588 50.7528 0.00561523 40.1146 0.00561523C18.1089 0.00561523 0 18.1353 0 40.1723C0 51.1648 4.50117 61.6883 12.4616 69.2737L13.9411 70.5865C21.1722 76.6818 30.3308 80.0369 39.7812 80.0369C60.7033 80.0369 78.2912 63.6368 79.7812 42.7355C80.8752 32.5037 77.8744 19.5628 72.7585 4.17337ZM18.161 69.5029C17.515 70.3052 16.5251 70.774 15.4936 70.774C13.6077 70.774 12.0656 69.2216 12.0656 67.3357C12.0656 65.4497 13.6181 63.8973 15.4936 63.8973C16.2751 63.8973 17.0461 64.1682 17.6504 64.6683C19.1196 65.8561 19.3488 68.0338 18.161 69.5029ZM72.5918 57.4789C62.6934 70.6803 41.5525 66.2312 27.9969 66.8668C27.9969 66.8668 25.59 67.0127 23.1727 67.4086C23.1727 67.4086 24.0792 67.0231 25.2566 66.575C34.7695 63.2617 39.2706 62.6157 45.0534 59.6462C55.9417 54.103 66.7049 41.9749 68.945 29.357C64.7981 41.4956 52.2324 51.9254 40.7815 56.1661C32.9357 59.0627 18.7653 61.8759 18.7653 61.8759L18.1922 61.5737C8.54389 56.8746 8.25215 35.9629 25.788 29.2111C33.467 26.252 40.8127 27.8775 49.1065 25.8978C57.963 23.7931 68.2053 17.1455 72.373 8.47657C77.0409 22.3448 82.6569 44.0588 72.5918 57.4789V57.4789Z" fill="#5E5F85"/>
</g>
<defs>
<clipPath id="clip0">
<rect width="80" height="80.032" fill="white"/>
</clipPath>
</defs>
</svg>
