<svg width="80" height="79" viewBox="0 0 80 79" fill="none" xmlns="http://www.w3.org/2000/svg">
<g clip-path="url(#clip0)">
<path d="M2.28565 28.0831C2.28565 28.0831 0.391881 26.718 2.66441 24.8952L7.95908 20.1608C7.95908 20.1608 9.4741 18.5669 11.0759 19.9556L59.9352 56.9473V74.6855C59.9352 74.6855 59.9116 77.471 56.3371 77.1632L2.28565 28.0831Z" fill="#5E5F85"/>
<path d="M14.8797 39.5168L2.28608 50.9662C2.28608 50.9662 0.992005 51.9289 2.28608 53.6491L8.13311 58.9674C8.13311 58.9674 9.52187 60.4588 11.5735 58.7623L24.9246 48.6385L14.8797 39.5168Z" fill="#5E5F85"/>
<path d="M36.9897 39.6115L60.0858 21.9758L59.9359 4.33211C59.9359 4.33211 58.9496 0.481442 55.6592 2.48568L24.9248 30.4583L36.9897 39.6115Z" fill="#5E5F85"/>
<path d="M56.3378 77.187C57.6792 78.56 59.3047 78.1103 59.3047 78.1103L77.3037 69.2411C79.6078 67.6708 79.2843 65.7218 79.2843 65.7218V12.7593C79.2843 10.4316 76.9013 9.62671 76.9013 9.62671L61.3011 2.10686C57.8923 3.79086e-05 55.6592 2.48561 55.6592 2.48561C55.6592 2.48561 58.5314 0.418246 59.936 4.33204V74.3622C59.936 74.8435 59.8334 75.3169 59.6283 75.743C59.2179 76.5716 58.3263 77.3449 56.1879 77.0213L56.3378 77.187Z" fill="#5E5F85"/>
</g>
<defs>
<clipPath id="clip0">
<rect width="80" height="78.56" fill="white"/>
</clipPath>
</defs>
</svg>
